<?xml version="1.0" standalone="no"?>
<!DOCTYPE svg PUBLIC "-//W3C//DTD SVG 1.1//EN" "http://www.w3.org/Graphics/SVG/1.1/DTD/svg11.dtd" >
<svg xmlns="http://www.w3.org/2000/svg">
<metadata>Created by Icons8</metadata>
<defs>
  <font id="Favorites" horiz-adv-x="1832.4210526315787">
    <font-face font-family="Favorites"
      units-per-em="1024" ascent="896"
      descent="128"
      font-weight="500" />
    <missing-glyph horiz-adv-x="0" />
    <glyph glyph-name="call-disconnected"
      unicode="&#xF100;"
      horiz-adv-x="1024" d="M799.3344000000001 -66.5600000000001C799.0067200000001 -66.5600000000001 798.6790400000001 -66.5600000000001 798.3308800000001 -66.53952C644.46464 -61.5833600000001 464.13824 87.6339199999999 339.84512 211.9679999999999C215.5724800000001 336.2611199999999 66.41664 516.608 61.48096 669.9007999999999C59.76064 723.6198400000001 191.6928 819.26144 193.024 820.18304C227.28704 844.0832 265.2979200000001 835.56352 280.8832 813.99808C291.36896 799.47776 391.3728 647.84384 402.2886400000001 630.59968C413.5936000000001 612.82304 411.9347200000001 586.24 397.8444800000001 559.55456C390.1235200000001 544.7884799999999 364.3392000000001 499.48672 352.2560000000001 478.35136C365.2403200000001 459.776 399.7900800000001 414.28992 470.9990400000001 343.1014400000001C542.2080000000001 271.91296 587.6736000000001 237.32224 606.2899200000002 224.2969599999999C627.4252800000002 236.3596799999999 672.7270400000001 262.12352 687.4931200000001 269.9059199999999C713.7689600000001 283.81184 740.2086400000001 285.55264 758.2105600000001 274.51392C776.45824 263.35232 927.6211200000002 162.816 941.5884800000002 153.0470399999999C953.3030400000002 144.8345599999999 960.83968 130.7238399999999 962.2937600000002 114.33984C963.7478400000002 97.77152 958.6688000000001 80.24064 947.9577600000002 65.00352C947.07712 63.75424 852.7667200000001 -66.5600000000001 799.3344000000001 -66.5600000000001zM806.912 650.24L935.936 779.264C944.128 787.456 944.128 799.744 935.936 807.9359999999999S915.456 816.1279999999999 907.264 807.9359999999999L778.24 678.912L649.216 807.936C641.024 816.128 628.736 816.128 620.544 807.936C612.3520000000001 799.744 612.3520000000001 787.456 620.544 779.264L749.5680000000001 650.24L620.544 521.2159999999999C612.3520000000001 513.024 612.3520000000001 500.736 620.544 492.544C624.64 488.448 628.736 486.4 634.88 486.4S645.12 488.448 649.216 492.544L778.24 621.568L907.264 492.544C911.36 488.448 917.504 486.4 921.6 486.4S931.84 488.448 935.936 492.544C944.128 500.736 944.128 513.024 935.936 521.2159999999999L806.912 650.24z" />
    <glyph glyph-name="end-call"
      unicode="&#xF101;"
      horiz-adv-x="1024" d="M512 629.76C296.96 629.76 145.44001024 588.95998976 61.44 504.96L59.52 503.04C24.71999488 470.23998976 47.36 340.8799948800001 47.36 334.7200000000001C51.44000512 316.31998976 59.27999488 300.16 73.6 289.92C83.84 281.7599897600001 96.48001024 279.5199897600001 108.8 281.6C123.12000512 285.6800051199999 276.6400102400001 316.55999488 295.04 320.64C313.44001024 324.72000512 329.76001024 343.28000512 337.92 369.92C342.00000512 384.24000512 354.16000512 445.5999897600001 360.32 474.24C380.8 478.32000512 428.00001024 484.48 512 484.48C596.0000102399999 484.48 643.2 476.40000512 663.6800000000001 472.32C669.8399948800001 445.68000512 681.99999488 384.24000512 686.08 369.92C694.24001024 343.28000512 710.56001024 324.72000512 728.96 320.64C745.35999488 316.55999488 898.80000512 283.67998976 915.2 281.6L921.6 281.6C944.16001024 281.6 968.48001024 299.91999488 976.64 334.7200000000001C976.64 340.8799948800001 999.28000512 470.23998976 964.48 503.04L962.56 504.96C878.56001024 588.95998976 727.04 629.76 512 629.76zM510.08 323.2C509.19999488 323.0399897600001 508.32001024 322.8000051199999 507.52 322.56C497.99999488 320.39999488 491.27999488 311.83998976 491.52 302.0800000000001L491.52 24.3199999999999L424.32 91.52C419.36001024 96.64 412.08000512 98.8000051199999 405.12 97.28C397.44 95.9200051199999 391.28000512 90.31999488 389.12 82.88C386.95999488 75.35998976 389.19999488 67.35998976 394.88 62.0799999999999L494.72 -37.12C495.11999488 -37.76 495.52001024 -38.4 496 -39.04L497.28 -40.32C498.24 -41.28 499.36001024 -42.16000512 500.48 -42.88L512 -54.4L523.52 -42.88C525.1999948800001 -41.6 526.72 -40.0799948800001 528 -38.4L629.12 62.0799999999999C637.28001024 70.23998976 637.28001024 83.35998976 629.12 91.52C620.96001024 99.67998976 607.84001024 99.67998976 599.6800000000001 91.52L532.48 24.3199999999999L532.48 302.0800000000001C532.72000512 307.9999897600001 530.31999488 313.67999488 526.08 317.6800051199999C521.7600102399999 321.7599897600001 515.91999488 323.76000512 510.08 323.2z" />
    <glyph glyph-name="missed-call"
      unicode="&#xF102;"
      horiz-adv-x="1024" d="M610.5600000000001 752.64C599.28000512 751.60000512 590.96000512 741.51999488 592 730.24C593.03999488 718.96000512 603.12000512 710.64000512 614.4 711.6800000000001L769.28 711.6800000000001L512 454.4L240 726.4C231.8400102400001 734.55998976 218.72001024 734.55998976 210.56 726.4C202.40001024 718.23998976 202.40001024 705.11998976 210.56 696.96L497.28 410.24C501.12 406.23998976 506.48000512 403.99998976 512 403.99998976C517.51999488 403.99998976 522.88 406.23998976 526.72 410.24L798.72 682.24L798.72 527.36C798.64000512 520 802.48000512 513.11998976 808.88000512 509.36000512C815.28000512 505.67999488 823.11999488 505.67999488 829.51999488 509.36000512C835.91999488 513.11998976 839.75999488 520 839.6800000000001 527.36L839.6800000000001 732.16C839.6800000000001 743.43999488 830.47999488 752.64 819.2 752.64L614.4 752.64C613.76 752.64 613.12 752.64 612.48 752.64C611.84 752.64 611.2 752.64 610.5600000000001 752.64zM512 363.52C358.64000512 363.52 156.08000512 343.60000512 62.08 249.6C27.68001024 218.3999897600001 46.96000512 84.87999488 49.28 69.76C55.20001024 31.04 87.52001024 11.67998976 110.08 15.36C123.12000512 17.52000512 275.76000512 50.07998976 295.04 54.4C320.07999488 59.35998976 332.32001024 90.1600051199999 336.64 103.04C342.08 119.36 355.36001024 187.12000512 360.32 213.12C376.80001024 221.36000512 424.39999488 240.64 512 240.64C600.39999488 240.64 649.1200102399999 219.84 665.6 211.1999999999999C670.4 186.24 683.04001024 122.24 688.64 104.3199999999999C694.96000512 77.0400051199999 711.60000512 58.07998976 730.24 55.04C745.92 51.12000512 901.04000512 17.52000512 916.48 15.36C918.47999488 15.04 920.07999488 15.36 922.24 15.36C944.56000512 15.36 971.2 34.39998976 976.64 69.76C978.95999488 84.87999488 998.24001024 218.31999488 963.84 249.6L962.56 250.88C881.28 325.44 729.52000512 363.52 512 363.52z" />
    <glyph glyph-name="ringer-volume"
      unicode="&#xF103;"
      horiz-adv-x="1024" d="M231.75999488 834.39998976C219.27999488 833.6 205.83999488 829.12 193.03999488 820.16C191.68 819.27999488 59.76000512 723.67998976 61.44 670.00000512C66.31999488 516.72000512 215.52001024 336.32 339.8400000000001 211.91999488C464.16001024 87.68 644.48 -61.51999488 798.4 -66.5600000000001L799.36 -66.5600000000001C852.64001024 -66.5600000000001 947.04001024 63.75999488 947.91999488 65.03999488C958.64000512 80.3199999999999 963.76000512 97.84000512 962.24 114.3999897600001C960.80001024 130.8000051199999 953.28 144.88000512 941.60001024 153.03999488C927.68 162.8000051199999 776.56000512 263.28000512 758.15999488 274.56C740.16 285.59998976 713.76001024 283.8400000000001 687.52001024 270.00000512C672.7199948800001 262.15999488 627.44000512 236.40000512 606.32000512 224.3199999999999C587.68001024 237.36000512 542.24001024 271.92000512 471.04 343.1199948800001C399.75999488 414.32000512 365.19999488 459.84 352.24000512 478.4C364.32001024 499.52 390.08 544.79998976 397.83999488 559.60000512C411.9199948800001 586.24 413.60001024 612.87999488 402.24 630.64000512C391.4399948800001 647.83998976 291.44000512 799.36 280.88000512 814.00000512C271.1199948800001 827.52 252.64001024 835.91999488 231.75999488 834.39998976zM512 793.6L512 752.64C715.27999488 752.64 880.64 587.27999488 880.64 384L921.6 384C921.6 609.84000512 737.84000512 793.6 512 793.6zM512 680.07999488L512 639.11999488C652.72000512 639.11999488 767.11999488 524.6399897599999 767.11999488 384L808.0799948800001 384C808.0799948800001 547.27999488 675.27999488 680.07999488 512 680.07999488zM512 568.3199999999999L512 527.36C591.04 527.36 655.36 463.04 655.36 384L696.32 384C696.32 485.68000512 613.60001024 568.3199999999999 512 568.3199999999999z" />
    <glyph glyph-name="phone"
      unicode="&#xF104;"
      horiz-adv-x="1024" d="M799.36 -66.5600000000001C799.04 -66.5600000000001 798.72 -66.5600000000001 798.4 -66.5600000000001C644.48 -61.51999488 464.16001024 87.68 339.9199948800001 211.9999897600001C215.52001024 336.32 66.31999488 516.72000512 61.51999488 669.91998976C59.76000512 723.67998976 191.68 819.27999488 193.03999488 820.23999488C227.27999488 844.08000512 265.2800000000001 835.59999488 280.88000512 814.00000512C291.44000512 799.36 391.4399948800001 647.83998976 402.31999488 630.64000512C413.60001024 612.8 411.9199948800001 586.24 397.83999488 559.60000512C390.08 544.79998976 364.32001024 499.52 352.24000512 478.4C365.28001024 459.84 399.75999488 414.32000512 470.96000512 343.1199948800001C542.24001024 271.92000512 587.68001024 237.36000512 606.32000512 224.3199999999999C627.44000512 236.40000512 672.7199948800001 262.15999488 687.52001024 269.91998976C713.76001024 283.8400000000001 740.16 285.59998976 758.15999488 274.56C776.56000512 263.28000512 927.68 162.8000051199999 941.60001024 153.1199897600001C953.28 144.88000512 960.80001024 130.8000051199999 962.31999488 114.3999897600001C963.76000512 97.84000512 958.64000512 80.3199999999999 948.00001024 65.03999488C947.12000512 63.75999488 852.64001024 -66.5600000000001 799.36 -66.5600000000001z" />
    <glyph glyph-name="no-phones"
      unicode="&#xF105;"
      horiz-adv-x="1024" d="M61.28001024 855.19998976C52.87999488 855.19998976 45.44 850.16000512 42.24 842.48000512C39.11999488 834.71998976 40.96 825.92 46.96000512 820.08000512L948.08000512 -81.03999488C953.20000512 -86.4 960.88000512 -88.56000512 968 -86.6400051199999C975.20001024 -84.8000000000001 980.8 -79.20001024 982.64000512 -72C984.56000512 -64.88000512 982.4 -57.20000512 977.03999488 -52.08000512L485.60001024 439.36C547.59999488 500.95998976 588.72000512 532.72000512 605.8399948800001 544.5600051199999C626.72001024 532.55999488 671.60000512 506.88 686.08 499.03998976C710.24001024 484.48 737.44001024 482.31999488 757.28001024 493.68000512C775.75999488 504.71999488 927.11999488 603.8399999999999 941.44 614.64000512C963.44000512 630.3200051199999 972.23999488 668.40000512 947.91999488 702.32000512C946.95999488 703.6800000000001 852.87999488 834.56 799.28000512 834.56C798.72 834.56 798.15999488 834.48000512 797.68000512 834.48000512L795.52 834.39998976C675.04001024 828.40000512 526.64000512 739.44000512 354.48000512 570.48000512L75.91999488 849.03999488C72.07999488 853.04000512 66.80000512 855.19998976 61.28001024 855.19998976zM297.52000512 512.39999488C146.63999488 352.5600051200001 67.2 214.0800000000001 61.60001024 100.40000512L61.44 97.28C61.44 44.8 192.39999488 -51.04001024 193.67999488 -52.0000102399999C209.84000512 -63.60000512 225.12001024 -66.5600000000001 236.55999488 -66.5600000000001C239.04 -66.5600000000001 241.28 -66.40001024 243.44000512 -66.16000512C259.36001024 -64.4800102399999 273.20000512 -56.96 281.3599948800001 -45.4400000000001C290.48000512 -32.80001024 391.4399948800001 120.5600051199999 401.84000512 137.92C413.51999488 155.44000512 411.8400000000001 182.79999488 397.44 209.28C389.28001024 224.15998976 363.68001024 268.95998976 351.60000512 289.92C361.9999948800001 304.47998976 385.6 335.19998976 428.64001024 381.2799897600001z" />
    <glyph glyph-name="typing"
      unicode="&#xF106;"
      horiz-adv-x="1024" d="M880.64 814.08H143.36C86.89664 814.08 40.96 768.14336 40.96 711.6800000000001V220.16C40.96 163.69664 86.89664 117.76 143.36 117.76H228.1472000000001C235.0899200000001 58.44992 217.57952 18.2476799999999 173.79328 -8.04864C165.90848 -12.77952 162.14016 -22.20032 164.59776 -31.06816C167.03488 -39.936 175.12448 -46.08 184.32 -46.08C236.7488 -46.08 362.65984 -29.7984 423.60832 117.76H880.64C937.10336 117.76 983.04 163.69664 983.04 220.16V711.6800000000001C983.04 768.14336 937.10336 814.08 880.64 814.08zM307.2 424.96C284.5696 424.96 266.24 443.2896 266.24 465.92C266.24 488.5504 284.5696 506.88 307.2 506.88S348.1600000000001 488.5504 348.1600000000001 465.92C348.1600000000001 443.2896 329.8304 424.96 307.2 424.96zM512 424.96C489.3696 424.96 471.04 443.2896 471.04 465.92C471.04 488.5504 489.3696 506.88 512 506.88S552.96 488.5504 552.96 465.92C552.96 443.2896 534.6304 424.96 512 424.96zM716.8000000000001 424.96C694.1696000000001 424.96 675.84 443.2896 675.84 465.92C675.84 488.5504 694.1696000000001 506.88 716.8000000000001 506.88S757.76 488.5504 757.76 465.92C757.76 443.2896 739.4304 424.96 716.8000000000001 424.96z" />
    <glyph glyph-name="document"
      unicode="&#xF107;"
      horiz-adv-x="1024" d="M843.3322666666667 595.8656000000001L621.4656 817.7322666666666C615.0485333333332 824.1493333333333 606.3786666666667 827.7333333333333 597.3333333333334 827.7333333333333H238.9333333333334C201.216 827.7333333333333 170.6666666666667 797.184 170.6666666666667 759.4666666666667V8.5333333333333C170.6666666666667 -29.184 201.216 -59.7333333333333 238.9333333333334 -59.7333333333333H785.0666666666666C822.784 -59.7333333333333 853.3333333333334 -29.184 853.3333333333334 8.5333333333333V571.7333333333333C853.3333333333334 580.7786666666667 849.7493333333333 589.4485333333333 843.3322666666667 595.8656000000001zM614.4 179.2000000000001H341.3333333333333C322.4917333333334 179.2000000000001 307.2 194.4917333333334 307.2 213.3333333333334C307.2 232.1749333333334 322.4917333333334 247.4666666666667 341.3333333333333 247.4666666666667H614.4C633.2416 247.4666666666667 648.5333333333333 232.1749333333334 648.5333333333333 213.3333333333334C648.5333333333333 194.4917333333334 633.2416 179.2000000000001 614.4 179.2000000000001zM682.6666666666666 315.7333333333334H341.3333333333333C322.4917333333334 315.7333333333334 307.2 331.0250666666667 307.2 349.8666666666667C307.2 368.7082666666667 322.4917333333334 384 341.3333333333333 384H682.6666666666666C701.5082666666666 384 716.8 368.7082666666667 716.8 349.8666666666667C716.8 331.0250666666667 701.5082666666666 315.7333333333334 682.6666666666666 315.7333333333334zM614.4 554.6666666666667C595.5584 554.6666666666667 580.2666666666667 569.9584 580.2666666666667 588.8V762.7434666666667L788.3434666666667 554.6666666666667H614.4z" />
    <glyph glyph-name="crown"
      unicode="&#xF108;"
      horiz-adv-x="1024" d="M512 853.3333333333334C464.8333226666667 853.3333333333334 426.6666666666667 815.1666773333334 426.6666666666667 768C426.6666666666667 732.166656 448.8333226666667 702 480 689.3333333333334L341.3333333333333 341.3333333333334L150.6666666666667 500C163.0000213333333 514.8333226666667 170.6666666666667 533.833344 170.6666666666667 554.6666666666667C170.6666666666667 601.833344 132.5000106666667 640 85.3333333333333 640C38.166656 640 0 601.833344 0 554.6666666666667C0 507.4999893333334 38.166656 469.3333333333334 85.3333333333333 469.3333333333334C91.1666773333333 469.3333333333334 97.1666773333333 469.4999893333334 102.6666666666667 470.6666666666667L174.6666666666667 128L849.3333333333333 128L921.3333333333331 470.6666666666667C926.8333226666666 469.4999893333334 932.8333226666666 469.3333333333334 938.6666666666666 469.3333333333334C985.8333439999998 469.3333333333334 1024 507.4999893333334 1024 554.6666666666667C1024 601.833344 985.8333439999998 640 938.6666666666666 640C891.4999893333334 640 853.3333333333333 601.833344 853.3333333333333 554.6666666666667C853.3333333333333 533.833344 861.0000213333333 514.8333226666667 873.3333333333333 500L682.6666666666666 341.3333333333334L544 689.3333333333334C575.1666773333333 702 597.3333333333333 732.166656 597.3333333333333 768C597.3333333333333 815.1666773333334 559.1666773333333 853.3333333333334 512 853.3333333333334zM170.6666666666667 85.3333333333334L170.6666666666667 -42.6666666666666L853.3333333333333 -42.6666666666666L853.3333333333333 85.3333333333334z" />
    <glyph glyph-name="money-bag"
      unicode="&#xF109;"
      horiz-adv-x="1024" d="M512 861.8666666666667C481.7948672 861.8666666666667 454.9417984 848.53189632 436.2000042666667 827.7333333333333L341.3999957333334 827.7333333333333C317.26773248 827.7333333333333 300.6895991466667 803.3248017066667 309.6666658133334 780.9333316266667L341.3333333333333 691.2L682.6666666666666 691.2L714.3333205333333 780.9333316266667C723.3103871999999 803.3248017066667 706.7322709333333 827.7333333333333 682.6000042666667 827.7333333333333L587.7999957333334 827.7333333333333C569.0582016000001 848.53189632 542.2051328 861.8666666666667 512 861.8666666666667zM341.3333333333333 622.9333333333334C341.3333333333333 622.9333333333334 102.4 418.1333333333334 102.4 179.2000000000001C102.4 42.6666666666666 204.8 -25.6 273.0666666666667 -25.6L512 -25.6L750.9333333333333 -25.6C819.2 -25.6 921.6 42.6666666666666 921.6 179.2000000000001C921.6 418.1333333333334 682.6666666666666 622.9333333333334 682.6666666666666 622.9333333333334L341.3333333333333 622.9333333333334zM477.8666666666667 503.4666666666667L546.1333333333333 503.4666666666667L546.1333333333333 448.3333461333334C592.2133333333334 438.0250794666667 623.0314666666667 406.6277376 624.5333333333333 364.2000042666666L566.9999957333333 364.2000042666666C564.1669290666666 387.2741376 542.6927957333334 402.6666666666667 513.1333290666666 402.6666666666667C482.5498624 402.6666666666667 462.3333376 388.4890794666667 462.3333376 366.2000128000001C462.3333376 348.1776128 476.2309290666666 337.8037418666667 510.4666624 330.5333418666667L545.7333248 323.0666752C604.4767914666667 310.7104085333334 629.7333418666666 285.3290666666667 629.7333418666666 240C629.7333418666666 191.1893333333334 598.4256 158.4661162666668 546.1333333333333 148.5333162666667L546.1333333333333 93.8666666666667L477.8666666666667 93.8666666666667L477.8666666666667 148.3999914666667C427.6565333333333 157.8207914666667 396.1098581333333 188.6431914666666 394.2666581333334 233.7333248L453.3333333333333 233.7333248C456.1664 210.0447914666668 480.0928085333334 194.8666538666668 514.5333418666667 194.8666538666668C546.3114752 194.8666538666668 568.8000170666667 210.2490794666667 568.7999829333334 232.3333461333333C568.7999829333334 250.9701461333333 554.24 261.6858624 518.4 269.3999957333333L480.3333461333334 277.5333205333334C427.0853461333334 288.6607872000001 400.9333418666667 316.3893418666667 400.9333418666667 360.9333418666667C400.9333418666667 405.7504085333333 430.592 437.6869205333333 477.8666666666667 448.1999872L477.8666666666667 503.4666666666667z" />
    <glyph glyph-name="mail"
      unicode="&#xF10A;"
      horiz-adv-x="1024" d="M160 725.3333333333334C118.784 725.3333333333334 85.3333333333333 691.8826666666666 85.3333333333333 650.6666666666667L512 384L938.6666666666666 650.6666666666667C938.6666666666666 691.8826666666666 905.216 725.3333333333334 864 725.3333333333334L160 725.3333333333334zM85.3333333333333 565.2500010666668L85.3333333333333 128C85.3333333333333 80.8533333333334 123.52 42.6666666666667 170.6666666666667 42.6666666666667L853.3333333333333 42.6666666666667C900.48 42.6666666666667 938.6666666666666 80.8533333333334 938.6666666666666 128L938.6666666666666 565.2500010666668L512 298.6666666666668L85.3333333333333 565.2500010666668z" />
    <glyph glyph-name="search"
      unicode="&#xF10B;"
      horiz-adv-x="1024" d="M430.08 834.56C238.00000512 834.56 81.92 678.47999488 81.92 486.4C81.92 294.32000512 238.00000512 138.24 430.08 138.24C506.08001024 138.24 576.32 162.71998976 633.6 204.16L903.04 -64.64L960.64 -7.04L694.4 259.8400000000001C746.72001024 320.79998976 778.24 399.92000512 778.24 486.4C778.24 678.47999488 622.15999488 834.56 430.08 834.56zM430.08 793.6C600 793.6 737.28 656.3199999999999 737.28 486.4C737.28 316.48 600 179.1999999999999 430.08 179.1999999999999C260.1600000000001 179.1999999999999 122.88 316.48 122.88 486.4C122.88 656.3199999999999 260.1600000000001 793.6 430.08 793.6z" />
    <glyph glyph-name="user-folder"
      unicode="&#xF10C;"
      horiz-adv-x="1024" d="M102.4 814.08C68.52608 814.08 40.96 786.51392 40.96 752.64L40.96 629.76L61.44 629.76L962.56 629.76L983.04 629.76L983.04 670.72C983.04 704.59392 955.4739200000002 732.16 921.6 732.16L369.56000256 732.0399994879999C363.84608256 734.1084794880001 352.02879488 752.92288 345.6799948800001 763.04C329.97183488 788.10752 313.69216 814.08 286.7200000000001 814.08L102.4 814.08zM61.44 588.8C50.15552 588.8 40.96 579.62496 40.96 568.3199999999999L40.96 15.36C40.96 -18.5139200000001 68.52608 -46.08 102.4 -46.08L921.6 -46.08C955.4739200000002 -46.08 983.04 -18.5139200000001 983.04 15.36L983.04 568.3199999999999C983.04 579.62496 973.84448 588.8 962.56 588.8L61.44 588.8zM541.76 527.36C545.63072 527.33952 549.15966976 525.1615948799999 550.8800102399999 521.67999488L558.47999488 506.35999232C577.30111488 504.94687232 593.97568512 497.3696 606.96000512 484.16C624.71616512 466.09664 635.03104 437.9996774400001 634.5600000000001 408.99999744C634.21184 387.8236774400001 629.74816256 372.28032 624.28000256 357.76C630.58784256 352.7424 635.0643200000001 344.12767232 634.88 325.8799923200001C631.78752 299.31743232 615.51519744 287.47646976 602.91999744 283.36001024C598.76255744 263.02337024 586.67776 241.08447744 575.6800000000001 229.79999744L573.44 222.04000256L573.44 182.2800076799999C581.12 164.52384768 605.05344 157.6467251200001 632.64 149.6800051199999C677.30688 136.77760512 732.87776256 120.71520256 737.24000256 46.6800025599999C737.40384256 43.87424256 736.40511488 41.088 734.47999488 39.04C732.53439488 36.9715200000001 729.86624 35.84 727.04 35.84L296.96 35.84C294.13376 35.84 291.44512512 36.992 289.52000512 39.04C287.57440512 41.088 286.57567744 43.87424256 286.75999744 46.6800025599999C291.12223744 120.71520256 346.69312 136.77760512 391.36 149.6800051199999C418.9465600000001 157.6467251200001 442.90048 164.5443276799999 450.56 182.2800076799999L450.56 227.48000256C439.02976 237.86336256 425.52416256 261.63073024 421.0800025600001 283.36001024C408.50528256 287.4355302400001 392.2310348800001 299.09856256 389.19999488 324.76000256C388.97471488 344.44128256 393.5769600000001 353.36384512 399.68 358.32000512C394.06848 374.7244851200001 390.0262400000001 390.64895488 389.76 414.15999488C389.51424 434.45567488 394.3126425600001 463.74879232 418.52000256 488.11999232C444.6115225600001 514.41631232 485.56288 527.74912 541.76 527.36z" />
    <glyph glyph-name="send-file"
      unicode="&#xF10D;"
      horiz-adv-x="1024" d="M843.3322666666667 595.8656000000001L621.4656 817.7322666666666C615.0485333333332 824.1493333333333 606.3786666666667 827.7333333333333 597.3333333333334 827.7333333333333H238.9333333333334C201.216 827.7333333333333 170.6666666666667 797.184 170.6666666666667 759.4666666666667V8.5333333333333C170.6666666666667 -29.184 201.216 -59.7333333333333 238.9333333333334 -59.7333333333333H785.0666666666666C822.784 -59.7333333333333 853.3333333333334 -29.184 853.3333333333334 8.5333333333333V571.7333333333333C853.3333333333334 580.7786666666667 849.7493333333333 589.4485333333333 843.3322666666667 595.8656000000001zM714.1717333333332 268.5610666666667C712.4309333333333 264.3626666666666 709.9050666666666 260.5738666666666 706.7647999999999 257.4336L570.2656000000001 120.9344C563.6096 114.2783999999999 554.8714666666667 110.9333333333334 546.1333333333333 110.9333333333334S528.6570666666667 114.2783999999999 522.0010666666666 120.9344C508.6549333333333 134.2805333333332 508.6549333333333 155.8528 522.0010666666666 169.1989333333334L600.2687999999999 247.4666666666667H341.3333333333333C322.4576 247.4666666666667 307.2 262.7242666666666 307.2 281.6S322.4576 315.7333333333334 341.3333333333333 315.7333333333334H600.2687999999999L522.0010666666666 394.0010666666667C508.6549333333333 407.3472 508.6549333333333 428.9194666666667 522.0010666666666 442.2656S556.9194666666666 455.6117333333333 570.2656000000001 442.2656L706.7647999999999 305.7664C709.9392 302.6261333333333 712.4309333333333 298.8373333333333 714.1717333333332 294.6047999999999C717.6192 286.3104000000001 717.6192 276.8896 714.1717333333332 268.5610666666667zM614.4 554.6666666666667C595.5584 554.6666666666667 580.2666666666667 569.9584 580.2666666666667 588.8V762.7434666666667L788.3434666666667 554.6666666666667H614.4z" />
    <glyph glyph-name="marker"
      unicode="&#xF10E;"
      horiz-adv-x="1024" d="M512 810.6666666666666C347.0506666666667 810.6666666666666 213.3333333333333 676.9493333333334 213.3333333333333 512C213.3333333333333 342.784 401.2373333333333 93.0133333333333 478.9759999999999 -3.0293333333332C496.0426666666666 -24.1066666666666 527.9573333333333 -24.1066666666666 545.0239999999999 -3.0293333333332C622.7626666666666 93.0133333333333 810.6666666666666 342.7840000000001 810.6666666666666 512C810.6666666666666 676.9493333333334 676.9493333333332 810.6666666666666 512 810.6666666666666zM512 405.3333333333334C453.0773333333333 405.3333333333334 405.3333333333333 453.0773333333333 405.3333333333333 512C405.3333333333333 570.9226666666667 453.0773333333333 618.6666666666667 512 618.6666666666667S618.6666666666666 570.9226666666667 618.6666666666666 512C618.6666666666666 453.0773333333333 570.9226666666666 405.3333333333334 512 405.3333333333334z" />
    <glyph glyph-name="medical-doctor"
      unicode="&#xF10F;"
      horiz-adv-x="1024" d="M512 896C354.24 896 325.60001024 851.52 320.64 837.76C320.07999488 836.23999488 319.5200102400001 834.24 319.36 832.64L295.68 624C327.04 637.68000512 369.9999948800001 635.91999488 425.6 632.96C451.44000512 631.60000512 480.71999488 629.76 512 629.76C543.20001024 629.76 572.55999488 631.60000512 598.4 632.96C653.92001024 635.91999488 696.96 637.68000512 728.32 624L704.64 832.64C704.48001024 834.24 703.92000512 836.23999488 703.36 837.76C698.40001024 851.52 669.68000512 896 512 896zM491.52 814.08L532.48 814.08L532.48 752.64L593.92 752.64L593.92 711.6800000000001L532.48 711.6800000000001L532.48 650.24L491.52 650.24L491.52 711.6800000000001L430.08 711.6800000000001L430.08 752.64L491.52 752.64zM382.08 593.9200000000001C343.68 595.03998976 314.24 592.5600051199999 300.1600000000001 579.2C290.95999488 570.3999897599999 286.7200000000001 554.7199897600001 286.7200000000001 531.2C286.7200000000001 406.96000512 387.76000512 305.92 512 305.92C636.23999488 305.92 737.28 406.96000512 737.28 531.2C737.28 554.7199897600001 733.04000512 570.3999897599999 723.84 579.2C705.1200102399999 596.95998976 658.63999488 595.03998976 600.32 592C574.00000512 590.64000512 544.32 588.8 512 588.8C479.68 588.8 449.9999948800001 590.64000512 423.68 592C409.12001024 592.79998976 394.88 593.52000512 382.08 593.9200000000001zM512 285.44C466.08001024 285.44 420.40000512 281.28 376.96 273.28L512 -54.4L648.96 272.64C604.8000000000001 280.9600000000001 558.72 285.44 512 285.44zM336.64 264.32C169.99999488 223.83998976 40.96 131.12000512 40.96 33.92L40.96 -128L512 -128C503.75999488 -128 495.92000512 -122.88 492.8 -115.2zM512 -128L983.04 -128L983.04 33.92C983.04 130.63999488 855.4399948800001 223.5199897600001 689.92 264.32L531.2 -115.2C528 -122.80000512 520.24000512 -128 512 -128z" />
    <glyph glyph-name="hospital-3"
      unicode="&#xF111;"
      horiz-adv-x="1024" d="M307.2 793.6A34.1367466666667 34.1367466666667 0 1 1 307.2 725.3333333333334L716.8 725.3333333333334A34.1367466666667 34.1367466666667 0 1 1 716.8 793.6L307.2 793.6zM204.8 657.0666666666666A34.1367466666667 34.1367466666667 0 1 1 204.8 588.8L204.8 -25.6L409.6 -25.6L409.6 145.0666666666667L614.4 145.0666666666667L614.4 -25.6L819.2 -25.6L819.2 588.8A34.1367466666667 34.1367466666667 0 1 1 819.2 657.0666666666666L204.8 657.0666666666666zM512 520.5333333333333C530.8416 520.5333333333333 546.1333333333333 505.2416 546.1333333333333 486.4L546.1333333333333 418.1333333333334L614.4 418.1333333333334C633.2416 418.1333333333334 648.5333333333333 402.8416 648.5333333333333 384C648.5333333333333 365.1584000000001 633.2416 349.8666666666667 614.4 349.8666666666667L546.1333333333333 349.8666666666667L546.1333333333333 281.6C546.1333333333333 262.7584000000001 530.8416 247.4666666666667 512 247.4666666666667C493.1584 247.4666666666667 477.8666666666667 262.7584000000001 477.8666666666667 281.6L477.8666666666667 349.8666666666667L409.6 349.8666666666667C390.7584 349.8666666666667 375.4666666666667 365.1584000000001 375.4666666666667 384C375.4666666666667 402.8416 390.7584 418.1333333333334 409.6 418.1333333333334L477.8666666666667 418.1333333333334L477.8666666666667 486.4C477.8666666666667 505.2416 493.1584 520.5333333333333 512 520.5333333333333z" />
    <glyph glyph-name="copy"
      unicode="&#xF112;"
      horiz-adv-x="1024" d="M273.0666666666667 861.8666666666667A102.4 102.4 0 0 1 170.6666666666667 759.4666666666667A34.1333333333333 34.1333333333333 0 0 1 238.9333333333334 759.4666666666667A34.1333333333333 34.1333333333333 0 0 0 273.0666666666667 793.6L887.4666666666667 793.6A34.1333333333333 34.1333333333333 0 0 0 921.6 759.4666666666667L921.6 145.0666666666667A34.1333333333333 34.1333333333333 0 0 0 887.4666666666667 110.9333333333334A34.1333333333333 34.1333333333333 0 0 1 887.4666666666667 42.6666666666666A102.4 102.4 0 0 1 989.8666666666666 145.0666666666667L989.8666666666666 759.4666666666667A102.4 102.4 0 0 1 887.4666666666667 861.8666666666667L273.0666666666667 861.8666666666667zM136.5333333333333 691.2A102.4 102.4 0 0 1 34.1333333333333 588.8L34.1333333333333 8.5333333333333A102.4 102.4 0 0 1 136.5333333333333 -93.8666666666667L716.8 -93.8666666666667A102.4 102.4 0 0 1 819.2 8.5333333333333L819.2 588.8A102.4 102.4 0 0 1 716.8 691.2L136.5333333333333 691.2zM136.5333333333333 622.9333333333334L716.8 622.9333333333334A34.1333333333333 34.1333333333333 0 0 0 750.9333333333333 588.8L750.9333333333333 8.5333333333333A34.1333333333333 34.1333333333333 0 0 0 716.8 -25.6L136.5333333333333 -25.6A34.1333333333333 34.1333333333333 0 0 0 102.4 8.5333333333333L102.4 588.8A34.1333333333333 34.1333333333333 0 0 0 136.5333333333333 622.9333333333334z" />
    <glyph glyph-name="email-send"
      unicode="&#xF113;"
      horiz-adv-x="1024" d="M887.4666666666667 793.6A34.1333333333333 34.1333333333333 0 0 1 877.8000042666666 792.1333316266666A34.1333333333333 34.1333333333333 0 0 1 875.0666752 791.2666658133334L124.5999991466667 552.5999957333333L124.5999991466667 552.4666709333333A34.1333333333333 34.1333333333333 0 0 1 102.4 520.5333333333333A34.1333333333333 34.1333333333333 0 0 1 118.86666752 491.3999872L346.9333162666666 310.4666624L797.8000042666666 669.8000008533334L438.4666624 218.9333162666667L619.2666624 -9.0000042666667A34.1333333333333 34.1333333333333 0 0 1 648.5333333333333 -25.6A34.1333333333333 34.1333333333333 0 0 1 680.4666709333333 -3.3999872000001L680.5999957333333 -3.3999872000001L919.4666666666666 747.7333333333333A34.1333333333333 34.1333333333333 0 0 1 920.1333248 749.8000008533334A34.1333333333333 34.1333333333333 0 0 1 921.6 759.4666666666667A34.1333333333333 34.1333333333333 0 0 1 887.4666666666667 793.6z" />
    <glyph glyph-name="attach"
      unicode="&#xF114;"
      horiz-adv-x="1024" d="M692.8666624 793.0000008533333C642.5774762666666 793.0000008533333 592.3376810666667 773.0766506666666 554.6666666666666 733.3333333333334L281.3333333333333 444.9999872C179.1336618666667 337.1507029333334 179.1336618666667 163.7826218666667 281.3333333333333 55.9333376A34.1367466666667 34.1367466666667 0 0 1 292.46666752 48.1333248000001A34.1367466666667 34.1367466666667 0 0 1 292.6666683733333 48.0666624C395.6346538666667 -49.5080447999999 556.2488490666667 -48.4175189333333 655.1333205333334 55.9333376L847.4000042666667 258.7999914666667A34.1367466666667 34.1367466666667 0 1 1 797.8666666666667 305.7333248L605.6000170666666 102.8666709333334C528.739328 21.7571328 407.7940053333333 21.7571328 330.9333333333334 102.8666709333334C254.0695381333334 183.9795200000001 254.0695381333334 316.9538389333334 330.9333333333334 398.0666538666667L604.2000042666666 686.4C654.1956096 739.1458952533334 731.6044117333333 739.1458952533334 781.6000170666666 686.4C831.5905706666667 633.65935104 831.5905706666667 546.6073088 781.6000170666666 493.8666666666667L532.8666624 231.4000042666667C509.6935082666667 206.9688661333333 475.8672725333333 206.9869567999999 452.7333376 231.4000042666667C429.5990272 255.8134272000001 429.5990272 296.9199274666667 452.7333376 321.3333162666668L652.8 532.4666538666667A34.1367466666667 34.1367466666667 0 1 1 603.2666624 579.4000008533333L403.1333376 368.2666496C354.6559146666667 317.1088725333334 354.6559146666667 235.6244480000001 403.1333376 184.4666709333334A34.1367466666667 34.1367466666667 0 0 1 414.5999872 176.5333333333333C463.7738666666667 135.4535594666667 537.2314623999999 136.8461312 582.4 184.4666709333334L831.1333205333334 446.9333333333334C903.3716053333334 523.1454890666666 904.4107264 642.4163054933333 838.1333503999999 722.2666649600001A34.1367466666667 34.1367466666667 0 0 1 831.1333205333334 733.3333333333334C793.4623402666666 773.0766506666666 743.1558826666666 793.0000008533333 692.8666624 793.0000008533333z" />
    <glyph glyph-name="mail-2"
      unicode="&#xF115;"
      horiz-adv-x="1024" d="M118.1538461538462 738.4615384615385C52.9230769230769 738.4615384615385 0 685.5384615384615 0 620.3076923076923L0 147.6923076923076C0 82.4615384615385 52.9230769230769 29.5384615384614 118.1538461538462 29.5384615384614L905.846153846154 29.5384615384614C971.076923076923 29.5384615384614 1024 82.4615384615385 1024 147.6923076923076L1024 620.3076923076923C1024 685.5384615384615 971.076923076923 738.4615384615385 905.846153846154 738.4615384615385zM30.7692307692308 626.4615384615385L512 366.7692307692307L993.2307692307692 626.4615384615385L688 388.9230769230769L940.3076923076924 130.4615384615385L632.6153846153846 349.5384615384616L512 272L391.3846153846154 349.5384615384616L83.6923076923077 130.4615384615385L336 388.9230769230769z" />
    <glyph glyph-name="open-envelope"
      unicode="&#xF116;"
      horiz-adv-x="1024" d="M512 896C475.12000512 896 442.08001024 884.63998976 416.64 863.36C387.52 839.04 34.95999488 526.64000512 8.32 503.04L163.84 379.52L163.84 527.36C163.84 538.63999488 173.04000512 547.8399999999999 184.32 547.8399999999999L839.6800000000001 547.8399999999999C851.04001024 547.8399999999999 860.16 538.63999488 860.16 527.36L860.16 380.8L1014.4 504.32C977.20000512 537.3599948799999 638.79999488 837.04000512 607.36 863.36C581.92001024 884.63998976 548.87999488 896 512 896zM1024 459.52L722.5600000000001 218.24C814.00000512 146.71998976 938.95999488 49.20000512 1024 -17.28zM0 456.96L0 -14.72C80 47.36 207.36 146.31999488 300.8 218.88zM307.2 445.44C295.92000512 445.44 286.7200000000001 436.23999488 286.7200000000001 424.96C286.7200000000001 413.68000512 295.92000512 404.48 307.2 404.48L716.8000000000001 404.48C728.16001024 404.48 737.28 413.68000512 737.28 424.96C737.28 436.23999488 728.16001024 445.44 716.8000000000001 445.44zM307.2 343.04C295.92000512 343.04 286.7200000000001 333.91998976 286.7200000000001 322.56C286.7200000000001 311.19998976 295.92000512 302.0800000000001 307.2 302.0800000000001L408.32 302.0800000000001C412.64001024 305.43998976 416.16001024 307.76000512 417.92 309.12C455.04 338.07998976 492.55999488 342.7200000000001 509.44 343.04zM514.5600000000001 343.04C531.44000512 342.64000512 568.96 338.16000512 606.08 309.12C607.75999488 307.8400000000001 611.36001024 305.43998976 615.6800000000001 302.0800000000001L716.8000000000001 302.0800000000001C728.16001024 302.0800000000001 737.28 311.19998976 737.28 322.56C737.28 333.91998976 728.16001024 343.04 716.8000000000001 343.04zM512 302.0800000000001C500.87999488 302.0800000000001 471.92000512 299.8400000000001 442.88 277.12C418.48000512 257.9999948800001 120.39999488 26.88 0 -66.5600000000001L0 -107.52C0 -118.88001024 9.20000512 -128 20.48 -128L1003.52 -128C1014.88001024 -128 1024 -118.88001024 1024 -107.52L1024 -69.76C889.67999488 35.35998976 604.55999488 258.8000051199999 581.12 277.12C552.0799948800001 299.8400000000001 523.12000512 302.0800000000001 512 302.0800000000001z" />
    <glyph glyph-name="topic-moved"
      unicode="&#xF117;"
      horiz-adv-x="1024" d="M170.6666666666667 768C123.7333333333333 768 85.7499989333333 729.6 85.7499989333333 682.6666666666667L85.4166656 170.7499946666667C85.4166656 123.603328 123.6033322666667 85.3333333333334 170.7499989333333 85.3333333333334L256 85.3333333333334L256 -85.3333333333333L426.6666666666667 85.3333333333334L853.3333333333333 85.3333333333334C900.2666666666667 85.3333333333334 938.6666666666666 123.7333333333334 938.6666666666666 170.6666666666668L938.6666666666666 682.6666666666667C938.6666666666666 729.6 900.2666666666667 768 853.3333333333333 768L170.6666666666667 768zM554.6666666666666 597.3333333333334L725.3333333333333 426.6666666666667L554.6666666666666 256L554.6666666666666 384L298.6666666666667 384L298.6666666666667 469.3333333333334L554.6666666666666 469.3333333333334L554.6666666666666 597.3333333333334z" />
    <glyph glyph-name="forward-arrow"
      unicode="&#xF118;"
      horiz-adv-x="1024" d="M102.4 -25.5200051199999C102.08 -25.5200051199999 101.83999488 -25.5200051199999 101.51999488 -25.5200051199999C90.48000512 -25.03999488 81.76001024 -15.92000512 81.92 -4.87999488C81.99999488 0.15998976 93.76 492.95998976 573.44 506.56L573.44 650.24C573.44 658.16000512 577.99999488 665.35999488 585.1200102399999 668.72000512C592.16001024 672.1599897599999 600.7199948800001 671.11999488 606.79999488 666.16000512L934.47999488 399.92000512C939.27999488 395.99998976 942.08 390.15999488 942.08 384C942.08 377.84000512 939.27999488 371.9999897600001 934.56001024 368.07999488L606.8800102399999 101.83999488C600.7199948800001 96.88000512 592.24000512 95.9200051199999 585.1200102399999 99.27999488C577.99999488 102.64000512 573.44 109.83999488 573.44 117.76L573.44 260.95998976C146.63999488 253.19999488 123.59999488 4.23999488 122.80000512 -6.47999488C122.08001024 -17.28 113.12001024 -25.5200051199999 102.4 -25.5200051199999z" />
    <glyph glyph-name="warning-shield"
      unicode="&#xF119;"
      horiz-adv-x="1024" d="M930.7692504615384 697.9999901538462C922.9230867692308 706.9230867692307 911.8461636923078 712 900.153856 712.4615483076923C809.8461538461539 714.769211076923 695.3846153846155 811.3845956923077 619.8461440000001 849.3846055384615C573.0769132307693 872.6153846153846 542.3076824615385 888.1538363076924 519.0769427692309 892.1538441846154C516.6154043076923 892.4615364923077 514.3077021538462 892.6153846153846 512 892.6153846153846C509.6922978461539 892.6153846153846 507.3846350769231 892.4615364923077 504.9230966153847 892.1538441846154C481.6923175384616 888 450.9230867692308 872.6153846153846 404.3076923076923 849.2307692307693C328.6153846153847 811.3845956923077 214.3076824615385 714.769211076923 123.846144 712.4615483076923C112.1538363076923 712 101.0769132307693 706.9230867692307 93.2307889230769 697.9999901538462C85.2307889230769 689.0769329230769 81.2307692307692 677.2307495384615 81.6923175384615 665.0769329230769C101.2307889230769 270.3076824615385 242.7692504615385 25.9999901538462 491.2307593846155 -115.8461440000001C497.6923175384616 -119.5384516923077 504.769220923077 -121.5384812307692 512 -121.5384812307692C519.0769427692309 -121.5384812307692 526.3076824615385 -119.5384516923077 532.7692406153847 -115.8461440000001C781.230788923077 25.9999901538462 922.7692504615384 270.3076824615385 942.1538461538462 665.0769329230769C942.7692307692308 677.2307495384615 938.7692504615384 689.0769329230769 930.7692504615384 697.9999901538462zM465.6923175384616 646.4615187692308C466.6153747692308 647.3846153846154 468.0000196923077 648 469.2307889230769 648L550.6153944615385 648C551.8461636923078 648 553.2307692307693 647.3846153846154 554.1538658461538 646.4615187692308C555.0769230769231 645.5384615384615 555.5384713846154 644.3076923076923 555.5384713846154 642.9230867692307L548.9230769230769 292.6153649230769C548.9230769230769 289.9999901538462 546.6153747692308 287.8461636923077 544 287.8461636923077L478.1538461538462 287.8461636923077C475.5384713846154 287.8461636923077 473.3846055384616 289.8461538461538 473.2307692307693 292.6153649230769L464.307712 642.9230867692307C464.307712 644.153856 464.769220923077 645.5384615384615 465.6923175384616 646.4615187692308zM550.3076824615385 149.3846252307692C539.5384713846154 139.6923076923076 526.7692307692308 134.7692307692307 512.1538363076924 134.7692307692307C497.0769329230769 134.7692307692307 484.153856 139.6923076923076 473.5384812307693 149.3846252307692C462.9230670769231 159.230779076923 457.3846055384616 171.3845956923077 457.3846055384616 185.3846055384615C457.3846055384616 199.8461636923077 462.9230670769231 212.4615286153846 473.5384812307693 222.6153944615384C484.153856 232.6153846153846 497.0769329230769 237.6922978461538 512.1538363076924 237.6922978461538C526.7692307692308 237.6922978461538 539.5384713846154 232.6153846153846 550.3076824615385 222.6153944615384C561.0769329230769 212.4615286153846 566.6153944615385 199.8461636923077 566.6153944615385 185.3846055384615C566.6153944615385 171.3845956923077 561.0769329230769 159.230779076923 550.3076824615385 149.3846252307692z" />
    <glyph glyph-name="home"
      unicode="&#xF11A;"
      horiz-adv-x="1024" d="M842.6666666666666 -21.3333333333333H650.6666666666666C621.2053333333333 -21.3333333333333 597.3333333333333 2.5386666666667 597.3333333333333 32V224C597.3333333333333 247.5733333333334 578.24 266.6666666666668 554.6666666666666 266.6666666666668H469.3333333333333C445.76 266.6666666666668 426.6666666666667 247.5733333333334 426.6666666666667 224V32C426.6666666666667 2.5386666666667 402.7946666666667 -21.3333333333333 373.3333333333333 -21.3333333333333H181.3333333333333C151.872 -21.3333333333333 128 2.5386666666667 128 32V439.1893333333334C128 488.2346666666667 150.4853333333333 534.5706666666667 188.992 564.9066666666668L492.1813333333333 803.8186666666667C503.808 812.9493333333334 520.192 812.9493333333334 531.7973333333333 803.8186666666667L835.0293333333334 564.9066666666668C873.5360000000001 534.5706666666667 896 488.256 896 439.232V32C896 2.5386666666667 872.1279999999999 -21.3333333333333 842.6666666666666 -21.3333333333333z" />
    <glyph glyph-name="more"
      unicode="&#xF11B;"
      horiz-adv-x="1024" d="M184.32 506.88C116.55999488 506.88 61.44 451.76000512 61.44 384C61.44 316.2399948800001 116.55999488 261.12 184.32 261.12C252.08000512 261.12 307.2 316.2399948800001 307.2 384C307.2 451.76000512 252.08000512 506.88 184.32 506.88zM512 506.88C444.2399948800001 506.88 389.12 451.76000512 389.12 384C389.12 316.2399948800001 444.2399948800001 261.12 512 261.12C579.76000512 261.12 634.88 316.2399948800001 634.88 384C634.88 451.76000512 579.76000512 506.88 512 506.88zM839.6800000000001 506.88C771.91999488 506.88 716.8000000000001 451.76000512 716.8000000000001 384C716.8000000000001 316.2399948800001 771.91999488 261.12 839.6800000000001 261.12C907.44000512 261.12 962.56 316.2399948800001 962.56 384C962.56 451.76000512 907.44000512 506.88 839.6800000000001 506.88z" />
    <glyph glyph-name="security-pass"
      unicode="&#xF11C;"
      horiz-adv-x="1024" d="M512 810.6666666666666C488.448 810.6666666666666 469.3333333333333 791.552 469.3333333333333 768L469.3333333333333 725.3333333333334L554.6666666666666 725.3333333333334L554.6666666666666 768C554.6666666666666 791.552 535.5519999999999 810.6666666666666 512 810.6666666666666zM554.6666666666666 725.3333333333334L554.6666666666666 682.6666666666667C554.6666666666666 659.1146666666667 535.5519999999999 640 512 640C488.448 640 469.3333333333333 659.1146666666667 469.3333333333333 682.6666666666667L469.3333333333333 725.3333333333334L128 725.3333333333334C80.8533333333333 725.3333333333334 42.6666666666667 687.1466666666668 42.6666666666667 640L42.6666666666667 128C42.6666666666667 80.8533333333334 80.8533333333333 42.6666666666667 128 42.6666666666667L896 42.6666666666667C943.1466666666666 42.6666666666667 981.3333333333331 80.8533333333334 981.3333333333331 128L981.3333333333331 640C981.3333333333331 687.1466666666668 943.1466666666666 725.3333333333334 896 725.3333333333334L554.6666666666666 725.3333333333334zM341.3333333333333 554.6666666666667C389.6746666666666 554.6666666666667 426.6666666666667 517.6746666666667 426.6666666666667 469.3333333333334C426.6666666666667 420.9920000000001 389.6746666666666 384 341.3333333333333 384C292.992 384 256 420.9920000000001 256 469.3333333333334C256 517.6746666666667 292.992 554.6666666666667 341.3333333333333 554.6666666666667zM640 512L810.6666666666666 512C834.2186666666666 512 853.3333333333333 492.8853333333333 853.3333333333333 469.3333333333334C853.3333333333333 445.7813333333334 834.2186666666666 426.6666666666667 810.6666666666666 426.6666666666667L640 426.6666666666667C616.448 426.6666666666667 597.3333333333333 445.7813333333334 597.3333333333333 469.3333333333334C597.3333333333333 492.8853333333333 616.448 512 640 512zM341.3333333333333 341.3333333333334C434.56 341.3333333333334 512 302.5579946666667 512 246.7499946666667L512 234.6666666666668C512 222.8906666666667 502.4426666666666 213.3333333333334 490.6666666666666 213.3333333333334L192 213.3333333333334C180.224 213.3333333333334 170.6666666666667 222.8906666666667 170.6666666666667 234.6666666666668L170.6666666666667 246.7499946666667C170.6666666666667 302.5579946666667 248.1066666666667 341.3333333333334 341.3333333333333 341.3333333333334zM640 341.3333333333334L810.6666666666666 341.3333333333334C834.2186666666666 341.3333333333334 853.3333333333333 322.2186666666667 853.3333333333333 298.6666666666668C853.3333333333333 275.1146666666667 834.2186666666666 256 810.6666666666666 256L640 256C616.448 256 597.3333333333333 275.1146666666667 597.3333333333333 298.6666666666668C597.3333333333333 322.2186666666667 616.448 341.3333333333334 640 341.3333333333334z" />
    <glyph glyph-name="transaction-list"
      unicode="&#xF11D;"
      horiz-adv-x="1024" d="M854.4844 880.3281248C848.65624 880.0390624 842.90624 877.5937504 838.40624 873.5937504L776 809.593752L712.796872 872.7968752C703.196872 882.3968752 688.003128 882.3968752 679.203128 872.7968752L616 809.593752L552.796872 872.7968752C543.196872 882.3968752 528.003128 882.3968752 519.203128 872.7968752L456 809.593752L392.796872 872.7968752C383.196872 882.3968752 368.003128 882.3968752 359.203128 872.7968752L319.203128 832.7968752C309.6031280000001 823.1968752 309.6031280000001 808.0031280000001 319.203128 799.203128C328.803128 789.603128 343.196872 789.603128 352.796872 799.203128L376 822.4062496L439.203128 759.203128C448.803128 749.603128 463.996872 749.603128 472.796872 759.203128L536 822.4062496L599.203128 759.203128C608.803128 749.603128 623.996872 749.603128 632.796872 759.203128L696 822.4062496L759.203128 759.203128C768.803128 749.603128 783.996872 749.603128 792.796872 759.203128L832 798.406248L832 344C832 330.4 842.4 320 856 320C869.6 320 880 330.4 880 344L880 856C880 865.6 874.39688 874.4062504 864.79688 878.4062496C861.49688 879.9062496 857.98128 880.5015624 854.4844 880.3281248zM216 880C202.4 880 192 869.6 192 856L192 176C192 162.4 202.4 152 216 152C229.6 152 240 162.4 240 176L240 856C240 869.6 229.6 880 216 880zM344 568A24 24 0 0 1 320 544A24 24 0 0 1 344 520A24 24 0 0 1 368 544A24 24 0 0 1 344 568zM464 568C450.4 568 440 557.6 440 544C440 530.4 450.4 520 464 520L736 520C749.6 520 760 530.4 760 544C760 557.6 749.6 568 736 568L464 568zM344 448A24 24 0 0 1 320 424A24 24 0 0 1 344 400A24 24 0 0 1 368 424A24 24 0 0 1 344 448zM464 448C450.4 448 440 437.6 440 424C440 410.4 450.4 400 464 400L736 400C749.6 400 760 410.4 760 424C760 437.6 749.6 448 736 448L464 448zM344 328A24 24 0 0 1 320 304A24 24 0 0 1 344 280A24 24 0 0 1 368 304A24 24 0 0 1 344 328zM464 328C450.4 328 440 317.6 440 304C440 290.4 450.4 280 464 280L736 280C749.6 280 760 290.4 760 304C760 317.6 749.6 328 736 328L464 328zM922.40624 264C908.80624 264 898.40624 253.6 898.40624 240L898.40624 236.796872C859.20624 226.3968720000001 832 192.003128 832 151.203128C832 122.4031280000001 845.59376 96.003128 869.59376 79.20312L944 27.20312C955.2 19.20312 962.40624 7.19376 962.40624 -6.40624C962.40624 -28.80624 943.99376 -47.20312 921.59376 -47.20312C905.59376 -47.20312 890.4 -37.60624 884 -22.40624C878.4 -10.40624 864.79688 -4.79376 852.79688 -9.59376C840.79688 -15.19376 835.2 -28.79688 840 -40.79688C851.2 -65.59688 871.99376 -84.00312 897.59376 -91.20312L897.59376 -94.40624C897.59376 -108.00624 907.99376 -118.40624 921.59376 -118.40624C935.19376 -118.40624 945.59376 -108.00624 945.59376 -94.40624L945.59376 -91.20312C983.19376 -80.80312 1010.40624 -46.39376 1010.40624 -5.59376C1010.40624 24.00624 996 51.2 972 68L898.40624 120C888.00624 128 881.59376 139.993752 881.59376 153.593752C881.59376 175.993752 900.00624 194.406248 922.40624 194.406248C939.20624 194.406248 953.6 184.7937520000001 960 169.593752C964.8 157.593752 979.20312 151.9968720000001 991.20312 156.796872C1003.20312 161.596872 1008.8 176 1004 188C993.6 213.6 972.00624 232.003128 946.40624 239.203128L946.40624 240C946.40624 253.6 936.00624 264 922.40624 264zM56 88C42.4 88 32 77.6 32 64L32 -16C32 -73.6 78.4 -120 136 -120L776 -120C789.6 -120 800 -109.6 800 -96C800 -82.4 789.6 -72 776 -72C744.8 -72 720 -47.2 720 -16L720 64C720 77.6 709.6 88 696 88L56 88zM80 40L672 40L672 -16C672 -36.8 678.4 -56 688 -72L136 -72C104.8 -72 80 -47.2 80 -16L80 40z" />
    <glyph glyph-name="labels"
      unicode="&#xF11E;"
      horiz-adv-x="1024" d="M307.2 725.3333333333334L68.2666666666667 486.4L116.3999982933333 486.4L245.73333504 486.4L259.4000008533333 486.4C285.68266752 486.4 307.2 507.9173461333333 307.2 534.2000128L307.2 547.8666581333334L307.2 677.2000017066666L307.2 725.3333333333334zM375.4666666666667 725.3333333333334L375.4666666666667 657.0666666666666L375.4666666666667 588.8L375.4666666666667 513.7333248C375.4666666666667 461.1679914666666 332.4320017066667 418.1333333333334 279.8666683733334 418.1333333333334L238.9333333333334 418.1333333333334L153.6 418.1333333333334L68.2666666666667 418.1333333333334L68.2666666666667 172.3999914666667C68.2666666666667 138.2666581333334 96.5840008533333 110.9333333333334 131.4000008533333 110.9333333333334L153.6 110.9333333333334L238.9333333333334 110.9333333333334L824.3333461333333 110.9333333333334C859.4906794666666 110.9333333333334 887.4666666666667 138.2666581333334 887.4666666666667 172.3999914666667L887.4666666666667 588.8L887.4666666666667 657.0666666666666L887.4666666666667 663.8666683733334C887.4666666666667 697.6586683733333 859.4906794666666 725.3333333333334 824.3333461333333 725.3333333333334L375.4666666666667 725.3333333333334zM955.7333333333333 588.8L955.7333333333333 104.1333248000001C955.7333333333333 69.9999914666668 928.4079957333332 42.6666666666666 893.9333290666667 42.6666666666666L238.9333333333334 42.6666666666666L238.9333333333334 35.8666581333333C238.9333333333334 1.7333248 266.2240017066667 -25.6 299.3333316266666 -25.6L963.6000085333332 -25.6C997.0506752 -25.6 1024 1.7333248 1024 35.8666581333333L1024 527.3333418666666C1024 561.12533504 997.0506752 588.8 963.6000085333332 588.8L955.7333333333333 588.8z" />
    <glyph glyph-name="us-dollar"
      unicode="&#xF11F;"
      horiz-adv-x="1024" d="M512 793.6C285.7984 793.6 102.4 610.2016000000001 102.4 384C102.4 157.7984 285.7984 -25.6 512 -25.6S921.6 157.7984 921.6 384C921.6 610.2016000000001 738.2016 793.6 512 793.6zM546.1333333333333 184.0810666666668V110.9333333333334H477.8666666666667V183.8762666666667C405.1626666666667 193.5701333333333 359.3898666666667 235.8613333333334 356.8298666666667 298.5301333333334H434.6880000000001C438.4085333333334 267.3322666666667 469.8794666666667 247.3301333333334 515.2085333333333 247.3301333333334C557.0901333333334 247.3301333333334 586.6837333333334 267.6053333333334 586.6837333333334 296.6528000000001C586.6837333333334 321.1946666666668 567.5008 335.3258666666667 520.2944000000001 345.4634666666667L470.1525333333334 356.1130666666668C400.0085333333335 370.7904000000001 365.6362666666668 407.3130666666667 365.6362666666668 465.9882666666667C365.6362666666668 528.4522666666667 409.1221333333335 572.3477333333333 477.8666666666668 583.3728000000001V657.0666666666666H546.1333333333334V583.4752C612.8981333333335 572.6549333333332 657.9541333333334 529.408 660.0362666666667 470.2549333333333H584.2944000000001C580.5738666666666 500.6677333333333 552.2773333333334 520.9087999999999 513.3653333333334 520.9087999999999C473.0880000000001 520.9087999999999 446.4298666666668 502.2378666666666 446.4298666666668 472.9173333333333C446.4298666666668 449.1946666666666 464.8277333333334 435.5754666666667 509.8837333333334 425.984L556.2709333333335 416.1194666666667C633.6170666666667 399.8378666666667 666.9312000000002 366.5237333333334 666.9312000000002 306.7904C666.9653333333333 239.1381333333334 621.7045333333333 194.4234666666668 546.1333333333333 184.0810666666668z" />
    <glyph glyph-name="transfer"
      unicode="&#xF120;"
      horiz-adv-x="1024" d="M213.04000512 834.56C174.56001024 834.56 143.36 803.35998976 143.36 764.95998976L143.36 392.24000512C143.36 353.84000512 174.56001024 322.56 213.04000512 322.56L585.67999488 322.56C624.0799948800001 322.56 655.36 353.84000512 655.36 392.24000512L655.36 764.95998976C655.36 803.35998976 624.0799948800001 834.56 585.67999488 834.56zM696.32 527.36L696.32 486.4L892.87999488 486.4C909.04000512 486.4 921.6 473.84000512 921.6 457.67999488L921.6 85.0400051199999C921.6 68.87999488 909.04000512 56.3199999999999 892.87999488 56.3199999999999L520.24000512 56.3199999999999C504.07999488 56.3199999999999 491.52 68.87999488 491.52 85.0400051199999L491.52 281.6L450.56 281.6L450.56 85.0400051199999C450.56 46.79999488 481.99999488 15.36 520.24000512 15.36L892.87999488 15.36C931.12000512 15.36 962.56 46.79999488 962.56 85.0400051199999L962.56 457.67999488C962.56 495.92000512 931.12000512 527.36 892.87999488 527.36zM81.6 281.92C70.32000512 281.67999488 61.28001024 272.39999488 61.44 261.12L61.44 76.8C61.44 43.12000512 89.20000512 15.36 122.88 15.36L319.2000102400001 15.36L272.24000512 -31.60000512C266.88 -36.72000512 264.71999488 -44.4000051200001 266.63999488 -51.52C268.48 -58.72001024 274.0800102400001 -64.32 281.2800000000001 -66.16000512C288.39999488 -68.08000512 296.07999488 -65.9200000000001 301.19999488 -60.55999488L381.36000512 19.52C386.40001024 23.43999488 389.36000512 29.4399999999999 389.36000512 35.84C389.36000512 42.24 386.40001024 48.3199999999999 381.28001024 52.16L301.19999488 132.2399948800001C297.3599948800001 136.24000512 292.08000512 138.3999897600001 286.47999488 138.48000512C278.15999488 138.3999897600001 270.7200000000001 133.36000512 267.52 125.6800051199999C264.39999488 117.91998976 266.24 109.12 272.24000512 103.2800051199999L319.2000102400001 56.3199999999999L122.88 56.3199999999999C111.28000512 56.3199999999999 102.4 65.20000512 102.4 76.8L102.4 261.12C102.47999488 266.63999488 100.32001024 272 96.39999488 275.91999488C92.48 279.83998976 87.11999488 281.9999948800001 81.6 281.92z" />
    <glyph glyph-name="user"
      unicode="&#xF121;"
      horiz-adv-x="1024" d="M512 793.6C398.8821333333334 793.6 307.2 701.9178666666667 307.2 588.8L307.2 554.6666666666667C307.2 441.5488000000001 398.8821333333334 349.8666666666667 512 349.8666666666667C625.1178666666667 349.8666666666667 716.8 441.5488000000001 716.8 554.6666666666667L716.8 588.8C716.8 701.9178666666667 625.1178666666667 793.6 512 793.6zM511.9333376 247.4666666666667C375.1952042666666 247.4666666666667 199.74986752 173.5050581333333 149.26666752 107.8666581333333C118.0688008533334 67.2821248 147.7674666666667 8.5333333333333 198.9333333333333 8.5333333333333L825.0000042666667 8.5333333333333C876.1658709333333 8.5333333333333 905.8645333333334 67.2821248 874.6666666666666 107.8666581333333C824.1834666666667 173.4709248 648.6714709333334 247.4666666666667 511.9333376 247.4666666666667z" />
    <glyph glyph-name="team"
      unicode="&#xF122;"
      horiz-adv-x="1024" d="M341.3333333333333 682.6666666666667A128 128 0 0 1 213.3333333333333 554.6666666666667A128 128 0 0 1 341.3333333333333 426.6666666666667A128 128 0 0 1 469.3333333333333 554.6666666666667A128 128 0 0 1 341.3333333333333 682.6666666666667zM682.6666666666666 682.6666666666667A128 128 0 0 1 554.6666666666666 554.6666666666667A128 128 0 0 1 682.6666666666666 426.6666666666667A128 128 0 0 1 810.6666666666666 554.6666666666667A128 128 0 0 1 682.6666666666666 682.6666666666667zM160.5833344 511.9166677333334C141.8893354666667 511.1986688000001 101.2139989333333 506.3806677333334 74.7499989333333 479.9166677333334C39.46466688 444.6313386666667 42.7499989333333 384.0833280000001 42.7499989333333 384.0833280000001C42.7499989333333 384.0833280000001 103.2980010666667 380.7979946666667 138.5833344 416.0833280000001C173.8686677333333 451.3686613333334 170.5833344 511.9166677333334 170.5833344 511.9166677333334C170.5833344 511.9166677333334 166.8146688 512.1560021333333 160.5833344 511.9166677333334zM341.3333333333333 341.3333333333334C213.3333333333333 341.3333333333334 42.6666666666667 278.8693333333333 42.6666666666667 192L42.6666666666667 128C42.6666666666667 104.4480000000001 61.7813333333333 85.3333333333334 85.3333333333333 85.3333333333334L597.3333333333333 85.3333333333334C620.8853333333333 85.3333333333334 640 104.4480000000001 640 128L640 192C640 278.8693333333333 469.3333333333333 341.3333333333334 341.3333333333333 341.3333333333334zM682.6666666666666 341.3333333333334C669.1413333333333 341.3333333333334 655.0819839999999 340.4893440000001 640.9166506666666 339.1666773333334C691.3486506666666 302.2600106666667 725.3333333333333 253.4826666666668 725.3333333333333 192L725.3333333333333 128C725.3333333333333 104.4480000000001 744.448 85.3333333333334 768 85.3333333333334L938.6666666666666 85.3333333333334C962.2186666666666 85.3333333333334 981.3333333333331 104.4480000000001 981.3333333333331 128L981.3333333333331 192C981.3333333333331 278.8693333333333 810.6666666666666 341.3333333333334 682.6666666666666 341.3333333333334z" />
    <glyph glyph-name="occupied-bed"
      unicode="&#xF123;"
      horiz-adv-x="1024" d="M95.5 725.7916672A32.0032 32.0032 0 0 1 64 693.3333333333334L64 74.6666666666667A32.0032 32.0032 0 1 1 128 74.6666666666667L128 106.6666666666667L896 106.6666666666667L896 74.6666666666667A32.0032 32.0032 0 1 1 960 74.6666666666667L960 138.6666666666668L960 202.6666666666668C960 243.904 926.5706666666666 277.3333333333334 885.3333333333333 277.3333333333334L128 277.3333333333334L128 693.3333333333334A32.0032 32.0032 0 0 1 95.5 725.7916672zM277.3333333333333 512A85.3333333333333 85.3333333333333 0 0 1 277.3333333333333 341.3333333333334A85.3333333333333 85.3333333333333 0 0 1 277.3333333333333 512zM504.8333226666667 512C461.654656 512 426.6666666666667 477.0120106666667 426.6666666666667 433.833344L426.6666666666667 341.3333333333334L883.0833279999999 341.3333333333334C891.275328 357.3546666666668 896 375.4453333333334 896 394.6666666666667C896 459.4773333333334 843.4773333333333 512 778.6666666666666 512L504.8333226666667 512z" />
    <glyph glyph-name="checkmark"
      unicode="&#xF124;"
      horiz-adv-x="1024" d="M920.9333418666666 691.53333248A34.1367466666667 34.1367466666667 0 0 1 897.4666751999999 681.1999982933334L375.4666666666667 159.1999829333333L160.66666496 373.9999914666667A34.1367466666667 34.1367466666667 0 1 1 112.4000017066667 325.7333418666667L351.3333418666666 86.8000085333333A34.1367466666667 34.1367466666667 0 0 1 399.5999914666667 86.8000085333333L945.7333248 632.93333504A34.1367466666667 34.1367466666667 0 0 1 920.9333418666666 691.53333248z" />
    <glyph glyph-name="double-tick"
      unicode="&#xF125;"
      horiz-adv-x="1024" d="M266.24 35.84C255.4399948800001 35.84 244.96001024 40.15998976 237.28001024 47.83998976L12.00001024 273.1199897600001C-4.00001024 289.1199897600001 -4.00001024 315.0399897600001 12.00001024 331.0399897600001C28.00001024 347.0399897600001 53.92001024 347.0399897600001 69.92001024 331.0399897600001L263.36 137.6L726.24001024 696.79998976C740.64001024 714.31999488 766.47999488 716.72000512 783.84001024 702.23998976C801.28 687.83998976 803.76000512 662.00000512 789.28001024 644.6399897599999L297.7600102400001 50.71998976C290.48000512 41.7599897600001 279.68 36.4000051199999 268.1600000000001 35.91999488C267.52 35.84 266.88 35.84 266.24 35.84zM493.44 35.91999488C504.96 36.4000051199999 515.68001024 41.7599897600001 523.04001024 50.71998976L1014.56001024 644.6399897599999C1029.04000512 662.00000512 1026.56 687.83998976 1009.12001024 702.23998976C991.75999488 716.72000512 965.92001024 714.24 951.52001024 696.79998976L488.64 137.6L479.52001024 146.71998976C463.52001024 162.71998976 437.60001024 162.71998976 421.60001024 146.71998976C405.60001024 130.71998976 405.60001024 104.79998976 421.60001024 88.79998976L462.56001024 47.83998976C470.24001024 40.15998976 480.71999488 35.84 491.52 35.84C492.16 35.84 492.8 35.84 493.44 35.91999488z" />
    <glyph glyph-name="funnel"
      unicode="&#xF126;"
      horiz-adv-x="1024" d="M614.4 -87.04C610.75456 -87.04 607.10912 -86.07744 603.8528 -84.11136L399.0528 38.76864C392.88832 42.4550399999999 389.12 49.13152 389.12 56.3199999999999V416.84992L67.01056 759.0707199999999C63.42656 762.88 61.44 767.8976 61.44 773.12V834.56C61.44 845.86496 70.61504 855.04 81.92 855.04H942.08C953.38496 855.04 962.56 845.86496 962.56 834.56V773.12C962.56 767.8976 960.57344 762.88 956.98944 759.0707199999999L634.88 416.84992V-66.5600000000001C634.88 -73.9328 630.90688 -80.7526399999999 624.49664 -84.3775999999999C621.3632 -86.15936 617.8816 -87.04 614.4 -87.04zM942.08 773.12H942.2848H942.08z" />
    <glyph glyph-name="slider"
      unicode="&#xF127;"
      horiz-adv-x="1024" d="M512 752.64C466.80000512 752.64 430.08 715.91999488 430.08 670.72C430.08 625.52000512 466.80000512 588.8 512 588.8C557.1999948800001 588.8 593.92 625.52000512 593.92 670.72C593.92 715.91999488 557.1999948800001 752.64 512 752.64zM61.44 691.2C50.16000512 691.2 40.96 681.99999488 40.96 670.72C40.96 659.44000512 50.16000512 650.24 61.44 650.24L390.96000512 650.24C389.83999488 656.88000512 389.12 663.75999488 389.12 670.72C389.12 677.68000512 389.83999488 684.55999488 390.96000512 691.2zM633.03999488 691.2C634.16000512 684.55999488 634.88 677.68000512 634.88 670.72C634.88 663.75999488 634.16000512 656.88000512 633.03999488 650.24L962.56 650.24C973.92001024 650.24 983.04 659.44000512 983.04 670.72C983.04 681.99999488 973.92001024 691.2 962.56 691.2zM798.72 465.92C753.52000512 465.92 716.8000000000001 429.19999488 716.8000000000001 384C716.8000000000001 338.8000051199999 753.52000512 302.0800000000001 798.72 302.0800000000001C843.91999488 302.0800000000001 880.64 338.8000051199999 880.64 384C880.64 429.19999488 843.91999488 465.92 798.72 465.92zM61.44 404.48C50.16000512 404.48 40.96 395.27999488 40.96 384C40.96 372.72000512 50.16000512 363.52 61.44 363.52L677.68000512 363.52C676.55999488 370.16000512 675.84 377.03999488 675.84 384C675.84 390.96000512 676.55999488 397.83999488 677.68000512 404.48zM919.75999488 404.48C920.88000512 397.83999488 921.6 390.96000512 921.6 384C921.6 377.03999488 920.88000512 370.16000512 919.75999488 363.52L962.56 363.52C973.92001024 363.52 983.04 372.72000512 983.04 384C983.04 395.27999488 973.92001024 404.48 962.56 404.48zM286.7200000000001 179.1999999999999C241.52000512 179.1999999999999 204.8 142.4799948800001 204.8 97.28C204.8 52.08000512 241.52000512 15.36 286.7200000000001 15.36C331.9199948800001 15.36 368.64 52.08000512 368.64 97.28C368.64 142.4799948800001 331.9199948800001 179.1999999999999 286.7200000000001 179.1999999999999zM61.44 117.76C50.16000512 117.76 40.96 108.6399897600001 40.96 97.28C40.96 85.91998976 50.16000512 76.8 61.44 76.8L165.68000512 76.8C164.55999488 83.44000512 163.84 90.24 163.84 97.28C163.84 104.3199999999999 164.55999488 111.11999488 165.68000512 117.76zM407.75999488 117.76C408.88000512 111.11999488 409.6 104.3199999999999 409.6 97.28C409.6 90.24 408.88000512 83.44000512 407.75999488 76.8L962.56 76.8C973.92001024 76.8 983.04 85.91998976 983.04 97.28C983.04 108.6399897600001 973.92001024 117.76 962.56 117.76z" />
    <glyph glyph-name="edit"
      unicode="&#xF128;"
      horiz-adv-x="1024" d="M779.2 793.6C761.7322666666666 793.6 744.2623829333334 786.9290666666667 730.9333162666667 773.6L648.5333333333333 691.2L819.2 520.5333333333333L901.5999829333334 602.9333333333334C928.2581162666665 629.5914666666666 928.2581162666665 672.8085333333333 901.5999829333334 699.4666666666667L827.4666837333333 773.6C814.1376170666666 786.9290666666667 796.6677333333333 793.6 779.2 793.6zM580.2666666666667 622.9333333333334L179.53333248 222.2000128C179.53333248 222.2000128 210.85973504 225.0069333333333 222.5333316266667 213.3333333333334C234.2069316266667 201.6597333333334 224.5973333333333 125.2693333333334 238.9333333333334 110.9333333333334C253.2693333333333 96.5973333333333 329.1781324800001 106.6885461333334 340.0666658133333 95.8000128C350.9552128 84.9114794666667 350.2000128 51.5333461333333 350.2000128 51.5333461333333L750.9333333333333 452.2666666666667L580.2666666666667 622.9333333333334zM136.5333333333333 110.9333333333334L104.33333248 19.7333333333334A34.1333333333333 34.1333333333333 0 0 1 102.4 8.5333333333333A34.1333333333333 34.1333333333333 0 0 1 136.5333333333333 -25.6A34.1333333333333 34.1333333333333 0 0 1 147.7333333333333 -23.6666538666667A34.1333333333333 34.1333333333333 0 0 1 148.0666658133333 -23.5333290666666L148.9333316266667 -23.2666794666666A34.1333333333333 34.1333333333333 0 0 1 149.13333248 -23.1333205333334L238.9333333333334 8.5333333333333L187.7333333333333 59.7333333333334L136.5333333333333 110.9333333333334z" />
    <glyph glyph-name="link"
      unicode="&#xF129;"
      horiz-adv-x="1024" d="M757.76 814.000001024C710.55872 814.002561024 663.3424076800001 796.012158976 627.40000768 760.0799989760001L525.00000768 657.67999488C473.9638476800001 606.64383488 459.37696768 532.9452851199999 480.84000768 468.72000512L554.39998976 542.2800076799999C557.47198976 563.3129676799999 566.76128768 583.6012748799999 582.92000768 599.75999488L685.32000768 702.159998976C705.2880076800001 722.1075189759999 731.5456 732.1200005119999 757.76 732.1200005119999C783.9744000000001 732.1200005119999 810.21247488 722.128001024 830.15999488 702.159998976C870.07551488 662.22399488 870.07551488 597.27552512 830.15999488 557.36000512L727.75999488 454.96000512C711.60127488 438.8012851200001 691.33344768 429.53248768 670.28000768 426.44000768L596.68000768 352.84000768C615.68544768 346.49120768 635.47488256 343.1199948800001 655.32000256 343.1199948800001C702.52640256 343.1199948800001 749.73759488 361.0976051200001 785.67999488 397.04000512L888.0799948800001 499.44000512C959.96479488 571.3043251199999 959.94431488 688.21567488 888.0799948800001 760.0799989760001C852.1375948799999 796.001921024 804.96128 813.997438976 757.76 814.000001024zM634.08001024 548.23999488A40.964096 40.964096 0 0 1 605.92001024 535.83998976L360.16001024 290.07998976A40.964096 40.964096 0 1 1 418.0799897600001 232.1600102399999L663.8399897600001 477.92001024A40.964096 40.964096 0 0 1 634.08001024 548.23999488zM377.84000512 424.47998976C327.62144768 427.03552512 276.61248512 409.27711232 238.32000512 370.9999923200001L135.920001024 268.59999232C64.055681024 196.7356723200001 64.055678976 79.78432512 135.920001024 7.9200051199999C171.862401024 -28.00191488 219.05408 -45.96000768 266.24 -45.96000768C313.42592 -45.96000768 360.61759488 -27.9823974400001 396.5599948800001 7.96000256L498.95999488 110.36000256C549.9961548800001 161.3961625599999 564.62303232 235.09471232 543.15999232 299.31999232L469.55999232 225.71999232C466.48799232 204.68703232 457.19871488 184.39872512 441.03999488 168.24000512L338.63999488 65.84000512C298.72447488 25.90400512 233.75552512 25.90400512 193.840001024 65.84000512C153.924481024 105.77600512 153.924481024 170.72447488 193.840001024 210.63999488L296.24000512 313.03999488C312.3987251200001 329.19871488 332.68703232 338.50753024 353.71999232 341.60001024L427.27999488 415.15999232C411.2236748800001 420.5257523200001 394.57951744 423.62816512 377.84000512 424.47998976z" />
    <glyph glyph-name="trash"
      unicode="&#xF12A;"
      horiz-adv-x="1024" d="M480 768C463.250016 768 446.124992 762.124992 434 750C421.875008 737.875008 416 720.749984 416 704L416 672L224 672L224 608L256 608L256 96C256 43.375008 299.375008 0 352 0L736 0C788.624992 0 832 43.375008 832 96L832 608L864 608L864 672L672 672L672 704C672 720.749984 666.124992 737.875008 654 750C641.875008 762.124992 624.750016 768 608 768zM480 704L608 704L608 672L480 672zM320 608L768 608L768 96C768 78.249984 753.750016 64 736 64L352 64C334.250016 64 320 78.249984 320 96zM384 512L384 160L448 160L448 512zM512 512L512 160L576 160L576 512zM640 512L640 160L704 160L704 512z" />
    <glyph glyph-name="unavailable"
      unicode="&#xF12B;"
      horiz-adv-x="1024" d="M512 855.04C252.25216 855.04 40.96 643.72736 40.96 384S252.25216 -87.04 512 -87.04S983.04 124.2726399999999 983.04 384S771.74784 855.04 512 855.04zM143.36 384C143.36 467.18976 171.43808 543.744 218.112 605.4911999999999L733.4911999999999 90.112C671.7439999999999 43.43808 595.1897600000001 15.36 512 15.36C308.736 15.36 143.36 180.736 143.36 384zM805.888 162.5088000000001L290.5088 677.8879999999999C352.256 724.56192 428.81024 752.64 512 752.64C715.264 752.64 880.64 587.264 880.64 384C880.64 300.8102399999999 852.56192 224.2560000000001 805.888 162.5088000000001z" />
    <glyph glyph-name="key"
      unicode="&#xF12C;"
      horiz-adv-x="1024" d="M631.4666666666667 793.6C471.2447999999999 793.6 341.3333333333333 663.6885333333333 341.3333333333333 503.4666666666667C341.3333333333333 467.8896981333334 348.0797866666666 433.9642368000001 359.8000128000001 402.4666794666667L102.4 145.0666666666667L102.4 -25.6L273.0666666666667 -25.6L273.0666666666667 76.8L375.4666666666667 76.8L375.4666666666667 179.2000000000001L477.8666666666667 179.2000000000001L530.4666794666667 231.8000128C561.9642368 220.0797866666667 595.8896981333334 213.3333333333334 631.4666666666667 213.3333333333334C791.6885333333333 213.3333333333334 921.6 343.2448000000001 921.6 503.4666666666667C921.6 663.6885333333333 791.6885333333333 793.6 631.4666666666667 793.6zM699.7333333333333 657.0666666666666C746.8714666666667 657.0666666666666 785.0666666666666 618.8714666666667 785.0666666666666 571.7333333333333C785.0666666666666 524.5952 746.8714666666667 486.4 699.7333333333333 486.4C652.5952 486.4 614.4 524.5952 614.4 571.7333333333333C614.4 618.8714666666667 652.5952 657.0666666666666 699.7333333333333 657.0666666666666z" />
    <glyph glyph-name="eye"
      unicode="&#xF12D;"
      horiz-adv-x="1024" d="M512 725.3333333333334C207.5887957333334 725.3333333333334 10.9563948373333 410.925056 7.4000001706667 405.2000085333334A34.1333333333333 34.1333333333333 0 0 1 0 384A34.1333333333333 34.1333333333333 0 0 1 5.533333504 365.3999957333333A34.1333333333333 34.1333333333333 0 0 1 5.666666496 365.2000085333333C6.253543424 363.9889578666666 171.3094417066667 42.6666666666666 512 42.6666666666666C851.2451242666666 42.6666666666666 1016.0580608 360.8323072 1018.0666709333332 364.7333376000001A34.1333333333333 34.1333333333333 0 0 1 1018.4666794666666 365.3999957333333A34.1333333333333 34.1333333333333 0 0 1 1024 384A34.1333333333333 34.1333333333333 0 0 1 1016.6666581333334 405.1333461333334A34.1333333333333 34.1333333333333 0 0 1 1016.5999957333333 405.2000085333334C1013.0436096 410.925056 816.4112042666666 725.3333333333334 512 725.3333333333334zM512 622.9333333333334C643.9594666666667 622.9333333333334 750.9333333333333 515.9594666666667 750.9333333333333 384C750.9333333333333 252.0405333333333 643.9594666666667 145.0666666666667 512 145.0666666666667C380.0405333333333 145.0666666666667 273.0666666666667 252.0405333333333 273.0666666666667 384C273.0666666666667 515.9594666666667 380.0405333333333 622.9333333333334 512 622.9333333333334zM512 486.4A102.4 102.4 0 0 1 409.6 384A102.4 102.4 0 0 1 512 281.6A102.4 102.4 0 0 1 614.4 384A102.4 102.4 0 0 1 512 486.4z" />
    <glyph glyph-name="invisible"
      unicode="&#xF12E;"
      horiz-adv-x="1024" d="M58.26666496 886L10 837.73333504L965.7333418666666 -117.9999914666666L1013.9999914666666 -69.7333418666666L808.3333461333333 135.9333376C948.1371648 230.5931946666666 1017.144832 362.9521578666667 1018.0666709333332 364.7333376000001A34.1333333333333 34.1333333333333 0 0 1 1024 384A34.1333333333333 34.1333333333333 0 0 1 1016.5999957333333 405.2000085333334C1013.0436096 410.925056 816.4112042666666 725.3333333333334 512 725.3333333333334C425.6377856 725.3333333333334 348.1371648000001 699.7267729066666 281.0666666666667 663.2L58.26666496 886zM512 622.9333333333334C643.9594666666667 622.9333333333334 750.9333333333333 515.9594666666667 750.9333333333333 384C750.9333333333333 330.3439018666667 732.8441344 281.1614549333333 702.9333333333333 241.3333162666668L604.2000042666666 340.0666794666667C610.6335573333333 353.3544448 614.4 368.2015232 614.4 384C614.4 440.5589333333334 568.5589333333334 486.4 512 486.4C496.2015231999999 486.4 481.3544448 482.6335573333333 468.0666794666667 476.2000042666667L369.3333162666667 574.9333333333334C409.1614549333334 604.8441514666666 458.3439018666667 622.9333333333334 512 622.9333333333334zM169.0000008533334 586.1999991466666C67.5552699733333 500.8682666666667 9.3860123306667 408.3360085333333 7.4666666666667 405.2666709333334A34.1333333333333 34.1333333333333 0 0 1 0 384A34.1333333333333 34.1333333333333 0 0 1 5.533333504 365.3999957333333A34.1333333333333 34.1333333333333 0 0 1 5.666666496 365.2000085333333C6.253543424 363.9889578666666 171.3094417066667 42.6666666666666 512 42.6666666666666C575.1466666666668 42.6666666666666 632.1674581333333 53.8117461333334 683.3333248 71.8000128L595.0000127999999 160.1999872C569.0928127999999 150.5743872000001 541.2181333333333 145.0666666666667 512 145.0666666666667C380.0405333333333 145.0666666666667 273.0666666666667 252.0405333333333 273.0666666666667 384C273.0666666666667 413.2181333333334 278.5744008533333 441.0928128000001 288.2000008533334 467.0000128L169.0000008533334 586.1999991466666z" />
    <glyph glyph-name="clock"
      unicode="&#xF12F;"
      horiz-adv-x="1024" d="M512 810.6666666666666C276.352 810.6666666666666 85.3333333333333 619.648 85.3333333333333 384C85.3333333333333 148.3520000000001 276.352 -42.6666666666666 512 -42.6666666666666S938.6666666666666 148.3520000000001 938.6666666666666 384C938.6666666666666 619.648 747.6479999999999 810.6666666666666 512 810.6666666666666zM652.5013333333333 183.168L469.3333333333333 366.336V640H554.6666666666666V401.664L712.832 243.4986666666668L652.5013333333333 183.168z" />
    <glyph glyph-name="time-machine"
      unicode="&#xF130;"
      horiz-adv-x="1024" d="M518.5000106666666 810.5833344C395.0919381333333 812.4299776 283.6761728 761.3276416 204.6666666666667 678.8333312L121.7499989333333 761.7499989333334C113.4299989333333 770.0699989333333 99.9033344 770.0699989333333 91.5833344 761.7499989333334C87.4020010666667 757.6113322666668 85.3333333333333 752.128 85.3333333333333 746.6666666666667L85.3333333333333 554.6666666666667A42.6666666666667 42.6666666666667 0 0 1 128 512L320 512C325.4613333333333 512 330.9019989333333 514.1113344 335.0833322666666 518.2500010666668C343.4033322666667 526.5700010666667 343.4033322666667 540.0966656 335.0833322666666 548.4166656L265.2500010666667 618.2500010666668C342.5307136 699.6830336 458.7467093333333 743.7198848 584.166656 717.8333354666667C715.3666559999999 690.7400021333333 820.5586773333332 584.5393322666666 846.5000106666666 453.0833493333334C889.593344 234.7153493333334 722.8159999999999 42.6666666666667 512 42.6666666666667C336.256 42.6666666666667 191.1413333333333 176.2033493333333 172.6666666666667 347.0833493333335C170.3626666666667 368.2886826666668 152 384 130.6666666666667 384C105.0666666666667 384 85.1413333333333 361.5959893333334 88 336.1666560000001C111.8506666666667 123.3453226666668 292.9493333333333 -42.6666666666666 512 -42.6666666666666C773.8026666666666 -42.6666666666666 981.3020159999998 194.4040106666666 931.0833493333332 465.1666773333333C899.2966826666667 636.8146688 760.1966506666665 773.9626666666667 588.2499839999999 804C564.6819839999999 808.112 541.3886719999999 810.240832 518.5000106666666 810.5833344zM512 640C488.448 640 469.3333333333333 620.8853333333334 469.3333333333333 597.3333333333334L469.3333333333333 384C469.3333333333333 372.6933333333334 473.8120106666667 361.8120106666668 481.833344 353.833344L579.666688 256C596.3066879999999 239.36 623.3599999999999 239.36 640 256C656.64 272.6400000000001 656.64 299.6933120000001 640 316.333312L554.6666666666666 401.6666453333334L554.6666666666666 597.3333333333334C554.6666666666666 620.8853333333334 535.5519999999999 640 512 640z" />
    <glyph glyph-name="download"
      unicode="&#xF131;"
      horiz-adv-x="1024" d="M469.3333333333333 810.6666666666666C445.7813333333334 810.6666666666666 426.6666666666667 791.552 426.6666666666667 768L426.6666666666667 426.6666666666667L277.3333333333333 426.6666666666667A21.3333333333333 21.3333333333333 0 0 1 256 405.3333333333334A21.3333333333333 21.3333333333333 0 0 1 262.2500010666667 390.249984A21.3333333333333 21.3333333333333 0 0 1 263.5833344 389.0000213333334L481.4166613333333 183.5833173333334L482.8333226666667 182.2499840000001A42.6666666666667 42.6666666666667 0 0 1 512 170.6666666666668A42.6666666666667 42.6666666666667 0 0 1 541.1666773333333 182.2499840000001L541.750016 182.7499946666667A42.6666666666667 42.6666666666667 0 0 1 542.166656 183.2500053333333L759.916672 388.5833386666667A21.3333333333333 21.3333333333333 0 0 1 761.1666773333333 389.7500160000001L761.4999893333334 390A21.3333333333333 21.3333333333333 0 0 1 761.750016 390.249984A21.3333333333333 21.3333333333333 0 0 1 768 405.3333333333334A21.3333333333333 21.3333333333333 0 0 1 746.6666666666666 426.6666666666667L597.3333333333333 426.6666666666667L597.3333333333333 768C597.3333333333333 791.552 578.2186666666666 810.6666666666666 554.6666666666666 810.6666666666666L512 810.6666666666666L469.3333333333333 810.6666666666666zM128 42.6666666666667A42.6709333333333 42.6709333333333 0 1 1 128 -42.6666666666666L896 -42.6666666666666A42.6709333333333 42.6709333333333 0 1 1 896 42.6666666666667L128 42.6666666666667z" />
    <glyph glyph-name="upload"
      unicode="&#xF132;"
      horiz-adv-x="1024" d="M512 810.6666666666666A42.6666666666667 42.6666666666667 0 0 1 481.833344 798.0833322666667L262.8333312 591.5833344A21.3333333333333 21.3333333333333 0 0 1 262.3333333333333 591.1666688L262.2500010666667 591.0833322666667A21.3333333333333 21.3333333333333 0 0 1 256 576A21.3333333333333 21.3333333333333 0 0 1 277.3333333333333 554.6666666666667L426.6666666666667 554.6666666666667L426.6666666666667 213.3333333333334C426.6666666666667 189.7813333333334 445.7813333333334 170.6666666666668 469.3333333333333 170.6666666666668L512 170.6666666666668L554.6666666666666 170.6666666666668C578.2186666666666 170.6666666666668 597.3333333333333 189.7813333333334 597.3333333333333 213.3333333333334L597.3333333333333 554.6666666666667L746.6666666666666 554.6666666666667A21.3333333333333 21.3333333333333 0 0 1 768 576A21.3333333333333 21.3333333333333 0 0 1 761.750016 591.0833322666667L760.4166826666666 592.3333333333334L542.5833386666666 797.7499989333334A42.6666666666667 42.6666666666667 0 0 1 541.1666773333333 799.0833322666667A42.6666666666667 42.6666666666667 0 0 1 512 810.6666666666666zM128 42.6666666666667A42.6709333333333 42.6709333333333 0 1 1 128 -42.6666666666666L896 -42.6666666666666A42.6709333333333 42.6709333333333 0 1 1 896 42.6666666666667L128 42.6666666666667z" />
    <glyph glyph-name="female-user"
      unicode="&#xF133;"
      horiz-adv-x="1024" d="M514.624992 824C195.632992 824 185.022496 441.207744 68.0624992 292.343744C68.0624992 228.551744 238.184496 37.169008 408.312496 -5.375008C441.802464 -31.4328 477.4124 -48 514.624992 -48C548.362512 -48 580.776736 -34.402784 611.5 -12.468752C781.157968 30.666368 939.968752 217.986816 939.968752 249.812496C939.952752 377.428496 865.664992 824 514.624992 824zM578.437504 621.937504L599.687504 526.25C644.264688 526.25 678.0656 557.1408 694.624992 575.906256C716.108816 535.874752 727.187504 485.601488 727.187504 430.562496L727.187504 354.875008L734.968752 345.875008C734.968752 345.875008 748.468752 330.5135840000001 748.468752 302.968752C748.468752 267.351776 718.593744 243.406256 718.593744 243.406256L710.906256 237.562496L707.718752 228.437504C686.794688 168.3374240000001 651.661072 113.28856 614.281248 74.624992C576.901424 35.961456 536.884272 16 514.624992 16C492.365728 16 452.38128 35.960016 415 74.624992C377.61872 113.29 342.47848 168.3318880000001 321.562496 228.437504L318.375008 237.593744L310.687504 243.437504C310.687504 243.437504 280.812496 267.383024 280.812496 303C280.812496 330.5448320000001 294.312496 345.875008 294.312496 345.875008L302.093744 354.906256L302.093744 430.562496C302.093744 434.21736 302.341616 437.762176 302.437504 441.375008C303.873696 441.854944 493.702784 505.419296 578.437504 621.937504z" />
    <glyph glyph-name="pupil-male"
      unicode="&#xF134;"
      horiz-adv-x="1024" d="M380 -44.8C360.8 -62.4 335.2 -72 309.6 -72C296 -72 285.6 -82.4 285.6 -96S296 -120 309.6 -120C347.2000000000001 -120 384 -106.4 412 -80.7999999999999C421.6 -72 422.4 -56.7999999999999 413.6 -47.1999999999999C405.6 -36.8 390.4 -36 380 -44.8zM163.2 484.8C196 467.2 233.6 474.4 256.8 503.2C263.2 511.2 268 519.2 271.2 527.2C286.3999999999999 566.4 308.8 626.4 335.2 634.4C344.8 637.5999999999999 356.8 632.8 372 622.4C382.3999999999999 614.4 631.1999999999999 434.4 712.8 428.8C713.5999999999999 428.8 713.5999999999999 428.8 714.4 428.8H872C878.4 428.8 884.8 431.2 888.8 436S896 446.3999999999999 896 452.8C895.2 561.6 856 670.4 788 752C715.2 840 617.6 888 512 888C340.8 888 182.4 759.2 125.6 575.2L124.8 573.5999999999999C115.2 538.4 129.6 502.4 163.2 484.8zM829.6 298.4C829.6 299.2000000000001 829.6 299.2000000000001 829.6 298.4L856 299.2C905.6 299.2 948 336.8 951.2 384.8C951.2 384.8 951.2 388.8 951.2 393.6C951.2 406.4 940 416.8 927.2 416.8C913.6 416.8 903.2 405.6 903.2 392C903.2 389.6 903.2 387.2 903.2 387.2C901.6 363.9999999999999 880.8000000000001 345.5999999999999 856 345.5999999999999L810.4 345.5999999999999C799.1999999999999 345.5999999999999 788.8 337.5999999999999 786.4 326.3999999999999C749.6 155.9999999999999 647.2 54.3999999999999 511.2 54.3999999999999C376 54.3999999999999 272.8 155.9999999999999 236 326.3999999999999C233.6 337.5999999999999 223.2 345.5999999999999 212 345.5999999999999H168C141.6 345.5999999999999 120 365.5999999999999 120 391.2C120 394.3999999999999 120 397.5999999999999 120.8 400.8C123.2 411.2 119.2 421.6 110.4 427.2C96.8 436 78.4 428.8 74.4 412.8C72.8 407.2 72 400 72 392C72 340.8 115.2 299.2000000000001 168 299.2000000000001H194.4C194.4 299.2000000000001 195.2 299.2000000000001 195.2 298.4000000000001C240 116 357.6 8 512 8C534.4 8 556 10.4 576.8 14.4C576.8 14.4 577.5999999999999 14.4 577.5999999999999 13.6C587.1999999999999 -61.6 651.1999999999999 -120 728.8 -120.7999999999999C740.8 -120.7999999999999 752 -112.7999999999999 753.5999999999999 -100.7999999999999C755.9999999999999 -85.5999999999999 744.8 -72.7999999999999 729.5999999999999 -72.7999999999999C672.8 -72.7999999999999 626.3999999999999 -28 623.1999999999999 28C623.1999999999999 28 623.1999999999999 28.8 623.1999999999999 28.8C723.2 69.6 796 164 829.6 298.4z" />
    <glyph glyph-name="received"
      unicode="&#xF135;"
      horiz-adv-x="1024" d="M86.6000008533333 691.2L471.4000042666667 332.0666794666667C494.1669376 310.7674794666667 529.8671957333333 310.7674794666667 552.5999957333333 332.0666794666667L937.4000127999998 691.2L86.6000008533333 691.2zM34.1333333333333 646.8000017066666L34.1333333333333 125.0666496L304 394.9333162666667L34.1333333333333 646.8000017066666zM989.8666666666666 646.8000017066666L741.1333461333332 414.6666837333334C755.5034794666666 416.7146837333333 770.1162666666667 418.1333333333334 785.0666666666666 418.1333333333334C863.8464 418.1333333333334 935.4922666666666 388.2432170666667 989.8666666666666 339.4666496000001L989.8666666666666 646.8000017066666zM785.0666666666666 349.8666666666667C653.1072 349.8666666666667 546.1333333333333 242.8928 546.1333333333333 110.9333333333334C546.1333333333333 -21.0261333333333 653.1072 -128 785.0666666666666 -128C917.0261333333332 -128 1024 -21.0261333333333 1024 110.9333333333334C1024 242.8928 917.0261333333332 349.8666666666667 785.0666666666666 349.8666666666667zM353.8666837333334 348.3333290666667L82.4 76.8L479.8666752 76.8C478.6037418666667 88.0298666666668 477.8666666666667 99.3962666666666 477.8666666666667 110.9333333333334C477.8666666666667 160.2901333333334 489.7818624 206.7311957333333 510.4666624 248.0666624000001C479.6101290666667 248.4421290666667 448.8640170666667 259.7402624 424.7999829333333 282.1999957333334L353.8666837333334 348.3333290666667zM887.4666666666667 213.3333333333334C896.1962666666666 213.3333333333334 904.9269248 210.0063914666666 911.5999914666666 203.3333248C924.9461247999998 189.9871914666667 924.9461247999998 168.4128085333334 911.5999914666666 155.0666752L775.0666581333334 18.5333418666667C768.4106581333333 11.8773418666666 759.6714666666667 8.5333333333333 750.9333333333333 8.5333333333333C742.1952 8.5333333333333 733.4560085333333 11.8773418666666 726.8000085333333 18.5333418666667L658.5333418666667 86.8000085333333C645.1872085333333 100.1461418666668 645.1872085333333 121.7205248 658.5333418666667 135.0666581333334C671.8794752 148.4127914666666 693.4538581333333 148.4127914666666 706.7999914666667 135.0666581333334L750.9333333333333 90.9333162666667L863.3333418666666 203.3333248C870.0064085333332 210.0063914666666 878.7370666666667 213.3333333333334 887.4666666666667 213.3333333333334z" />
    <glyph glyph-name="bedroom"
      unicode="&#xF136;"
      horiz-adv-x="1024" d="M63.589844 689.17968A14 14 0 0 1 50 675.1875L50 92.8125A14 14 0 0 1 64 78.8125A14 14 0 0 1 78 92.8125L78 306L946 306L946 92.8125A14 14 0 1 1 974 92.8125L974 515.80078A14 14 0 1 1 946 515.80078L946 468L78 468L78 675.1875A14 14 0 0 1 63.589844 689.17968zM113.769532 602A13.456 13.456 0 0 1 100 588.4140600000001L100 501.71484A13.564 13.564 0 0 1 113.769532 488L369.72656 488A14 14 0 0 1 384 501.71484L384 514.0390600000001A88.358 88.358 0 0 1 295.35156 602L113.769532 602z" />
    <glyph glyph-name="bed"
      unicode="&#xF137;"
      horiz-adv-x="1024" d="M294.1289 808A160.00001 160.00001 0 0 1 294.01562 488L294.13282 488C382.26682 488 454.00432 560.10982 454.07032 648.25782A159.67 159.67 0 0 1 294.2539 808L294.1289 808zM315.5117200000001 736.160156A13.918 13.918 0 0 0 329.5117200000001 722.246094L329.48046 684.0586000000001L367.71484 684.0586000000001A13.984 13.984 0 0 0 381.71484 670.0586000000001L381.6836 627.70312A13.762 13.762 0 0 0 367.6836 613.9961000000001L367.67188 613.9961000000001L329.4375 613.7461000000001L329.4062400000001 575.3711000000001A13.3 13.3 0 0 0 325.30078 565.78124A13.728 13.728 0 0 0 315.39844 562L315.39062 562L272.75 561.65234A13.84 13.84 0 0 0 258.75 575.4765600000001L258.7812400000001 613.61718L220.54296 613.59766A13.98 13.98 0 0 0 206.55468 627.5859399999999L206.60156 670.21484A13.828 13.828 0 0 0 220.60156 684L220.60938 684L258.84766 684.0663999999999L258.875 722.347656A13.612 13.612 0 0 0 262.98046 732.074218A13.842 13.842 0 0 0 272.8711 736L315.5117200000001 736.160156zM286.84376 708.390624L286.8125 670.1484399999999A14.132 14.132 0 0 0 272.8125 656.00782L234.57812 656.10938L234.5664 641.51172L272.80078 641.4961000000001A13.988 13.988 0 0 0 286.80078 627.48828L286.77344 589.26562L301.41016 589.26562L301.4414 627.76172A14.224 14.224 0 0 0 315.4414 642.01172L353.67968 641.71876L353.67968 656.23046L315.44532 656.19532A13.972 13.972 0 0 0 301.45312 670.17188L301.48438 708.390624L286.84376 708.390624zM63.589844 469.61328A14 14 0 0 1 50 455.61718L50 -26.7539A14 14 0 0 1 78 -26.7539L78 86L946 86L946 -26.7539A14 14 0 0 1 974 -26.7539L974 296.2382800000001A14 14 0 0 1 960 310.2382800000001A14 14 0 0 1 946 296.2382800000001L946 250L78 250L78 455.61718A14 14 0 0 1 63.589844 469.61328zM155.769532 420A55.146 55.146 0 0 1 100 364.84766L100 324.1484400000001A56 56 0 0 1 155.769532 268L195.726562 268A72.442 72.442 0 0 1 268 340.1484400000001L268 348.84766C268 388.54966 235.42856 420 195.726562 420L155.769532 420zM312.45704 420A13.104 13.104 0 0 1 300 406.84766L300 282.1484400000001A13.932 13.932 0 0 1 313.76954 268L883.72656 268A14.362 14.362 0 0 1 898 282.1484400000001L898 294.84766C898 364.32566 841.19856 420 771.72656 420L313.76954 420A13.104 13.104 0 0 1 312.45704 420z" />
    <glyph glyph-name="hospital"
      unicode="&#xF138;"
      horiz-adv-x="1024" d="M590.9333333333333 128V-110.9333333333333C590.9333333333333 -120.3583999999999 583.2917333333334 -128 573.8666666666667 -128H450.1333333333334C440.7082666666667 -128 433.0666666666667 -120.3583999999999 433.0666666666667 -110.9333333333333V128C433.0666666666667 137.4250666666667 440.7082666666667 145.0666666666667 450.1333333333334 145.0666666666667H573.8666666666667C583.2917333333334 145.0666666666667 590.9333333333333 137.4250666666667 590.9333333333333 128zM947.1637333333334 -109.8048C947.8015999999998 -119.7461333333334 939.936 -128 930.1333333333334 -128H642.1333333333333C632.7082666666666 -128 625.0666666666666 -120.3583999999999 625.0666666666666 -110.9333333333333V128C625.0666666666666 156.2773333333333 602.144 179.2000000000001 573.8666666666667 179.2000000000001H450.1333333333334C421.856 179.2000000000001 398.9333333333334 156.2773333333333 398.9333333333334 128V-110.9333333333333C398.9333333333334 -120.3583999999999 391.2917333333334 -128 381.8666666666667 -128H93.8666666666667C84.064 -128 76.1984 -119.7461333333332 76.8362666666667 -109.8048C77.4186666666667 -100.7317333333334 85.3546666666667 -93.8666666666667 94.4469333333333 -93.8666666666667H153.6V810.6666666666666C153.6 857.7941333333333 191.8058666666667 896 238.9333333333334 896H785.0666666666666C832.1941333333333 896 870.4 857.7941333333333 870.4 810.6666666666666V-93.8666666666667H929.5530666666668C938.6453333333334 -93.8666666666667 946.5813333333334 -100.7317333333334 947.1637333333334 -109.8048zM388.2666666666667 332.8C388.2666666666667 342.2250666666667 380.6250666666667 349.8666666666667 371.2 349.8666666666667H311.4666666666667C302.0416 349.8666666666667 294.4 342.2250666666667 294.4 332.8S302.0416 315.7333333333334 311.4666666666667 315.7333333333334H371.2C380.6250666666667 315.7333333333334 388.2666666666667 323.3749333333333 388.2666666666667 332.8zM558.9333333333333 332.8C558.9333333333333 342.2250666666667 551.2917333333334 349.8666666666667 541.8666666666667 349.8666666666667H482.1333333333333C472.7082666666666 349.8666666666667 465.0666666666667 342.2250666666667 465.0666666666667 332.8S472.7082666666666 315.7333333333334 482.1333333333333 315.7333333333334H541.8666666666667C551.2917333333334 315.7333333333334 558.9333333333333 323.3749333333333 558.9333333333333 332.8zM585.3888000000001 549.5445333333333H637.8666666666667C647.2917333333334 549.5445333333333 654.9333333333333 557.1861333333334 654.9333333333333 566.6112V645.1242666666667C654.9333333333333 654.5493333333334 647.2917333333334 662.1909333333333 637.8666666666667 662.1909333333333H585.3888000000001C575.9637333333334 662.1909333333333 568.3221333333333 669.8325333333332 568.3221333333333 679.2575999999999V731.7333333333333C568.3221333333333 741.1584 560.6805333333334 748.8 551.2554666666667 748.8H472.7424C463.3173333333334 748.8 455.6757333333334 741.1584 455.6757333333334 731.7333333333333V679.2554666666666C455.6757333333334 669.8303999999999 448.0341333333334 662.1888 438.6090666666667 662.1888H386.1333333333334C376.7082666666667 662.1888 369.0666666666667 654.5472 369.0666666666667 645.1221333333333V566.6090666666666C369.0666666666667 557.184 376.7082666666667 549.5424 386.1333333333334 549.5424H438.6112C448.0362666666667 549.5424 455.6778666666667 541.9008000000001 455.6778666666667 532.4757333333334V480C455.6778666666667 470.5749333333333 463.3194666666666 462.9333333333333 472.7445333333333 462.9333333333333H551.2575999999999C560.6826666666666 462.9333333333333 568.3242666666666 470.5749333333333 568.3242666666666 480V532.4778666666666C568.3221333333333 541.9029333333333 575.9637333333334 549.5445333333333 585.3888000000001 549.5445333333333zM729.6 332.8C729.6 342.2250666666667 721.9584 349.8666666666667 712.5333333333333 349.8666666666667H652.8C643.3749333333333 349.8666666666667 635.7333333333333 342.2250666666667 635.7333333333333 332.8S643.3749333333333 315.7333333333334 652.8 315.7333333333334H712.5333333333333C721.9584 315.7333333333334 729.6 323.3749333333333 729.6 332.8z" />
    <glyph glyph-name="add-folder"
      unicode="&#xF139;"
      horiz-adv-x="1024" d="M136.5333333333333 793.6C98.816 793.6 68.2666666666667 763.0506666666666 68.2666666666667 725.3333333333334L68.2666666666667 622.9333333333334L443.7333333333334 622.9333333333334L955.7333333333333 622.9333333333334L955.7333333333333 657.0666666666666C955.7333333333333 694.784 925.184 725.3333333333334 887.4666666666667 725.3333333333334L382.2666752 725.3333333333334L361.1999914666667 760.46666752C348.8778581333334 781.0149341866667 326.6624 793.6 302.6666666666667 793.6L136.5333333333333 793.6zM102.4 554.6666666666667C83.5584 554.6666666666667 68.2666666666667 539.3749333333333 68.2666666666667 520.5333333333333L68.2666666666667 110.9333333333334C68.2666666666667 73.216 98.816 42.6666666666666 136.5333333333333 42.6666666666666L485.7333418666666 42.6666666666666C480.7157418666666 64.6485333333333 477.8666666666667 87.4496 477.8666666666667 110.9333333333334C477.8666666666667 280.6101333333334 615.3898666666666 418.1333333333334 785.0666666666666 418.1333333333334C848.2474666666666 418.1333333333334 906.9226666666668 399.0330709333334 955.7333333333333 366.3333376000001L955.7333333333333 520.5333333333333C955.7333333333333 539.3749333333333 940.4416 554.6666666666667 921.6 554.6666666666667L102.4 554.6666666666667zM785.0666666666666 349.8666666666667C653.1072 349.8666666666667 546.1333333333333 242.8928 546.1333333333333 110.9333333333334C546.1333333333333 -21.0261333333333 653.1072 -128 785.0666666666666 -128C917.0261333333332 -128 1024 -21.0261333333333 1024 110.9333333333334C1024 242.8928 917.0261333333332 349.8666666666667 785.0666666666666 349.8666666666667zM785.0666666666666 247.4666666666667C803.9082666666667 247.4666666666667 819.2 232.2090666666667 819.2 213.3333333333334L819.2 145.0666666666667L887.4666666666667 145.0666666666667C906.3082666666666 145.0666666666667 921.6 129.8090666666667 921.6 110.9333333333334C921.6 92.0576 906.3082666666666 76.8 887.4666666666667 76.8L819.2 76.8L819.2 8.5333333333333C819.2 -10.3424 803.9082666666667 -25.6 785.0666666666666 -25.6C766.2250666666666 -25.6 750.9333333333333 -10.3424 750.9333333333333 8.5333333333333L750.9333333333333 76.8L682.6666666666666 76.8C663.8250666666667 76.8 648.5333333333333 92.0576 648.5333333333333 110.9333333333334C648.5333333333333 129.8090666666667 663.8250666666667 145.0666666666667 682.6666666666666 145.0666666666667L750.9333333333333 145.0666666666667L750.9333333333333 213.3333333333334C750.9333333333333 232.2090666666667 766.2250666666666 247.4666666666667 785.0666666666666 247.4666666666667z" />
    <glyph glyph-name="media-message"
      unicode="&#xF13A;"
      horiz-adv-x="1024" d="M0 752.64L0 695.6800000000001C61.68576 641.98144 415.7238476800001 333.81216256 443.72000768 309.40000256C472.51488768 284.31200256 501.06368 281.6 512 281.6C522.93632 281.6 551.48511232 284.31200256 580.27999232 309.40000256C609.3206323200001 334.7132825600001 983.98208 660.7635251199999 1024 695.600001024L1024 752.64L0 752.64zM0 641.3999923199999L0 127.47999232L309.55999232 371.91999488C209.18751232 459.30815488 66.17088 583.7897523199999 0 641.3999923199999zM1024 641.31999744C961.51552 586.94559744 816.2460876800001 460.49695744 714.44000768 371.87999744L1024 128.28000256L1024 641.31999744zM341.00000768 344.5600051200001L0 75.27999488L0 15.36L655.36 15.36L655.36 -89.0799923200001C655.36 -109.55999232 673.80000768 -128 694.28000768 -128C696.32800768 -128 700.43199488 -128.00800768 702.47999488 -125.96000768L987.12000512 15.36L1024 15.36L1024 76.16L682.99999232 344.52000768C643.33023232 309.99072768 614.4499302400001 284.84831232 607.20001024 278.5199923200001C567.93985024 244.33887232 527.54432 240.64 512 240.64C496.45568 240.64 456.06017024 244.35841024 416.79998976 278.55998976C409.61153024 284.82689024 380.7516876800001 309.94880512 341.00000768 344.5600051200001zM696.32 195.5999948800001L974.83999232 56.3199999999999C976.88799232 56.3199999999999 976.91199488 54.2800076799999 978.95999488 54.2800076799999C976.91199488 54.2800076799999 976.88799232 52.23999488 974.83999232 52.23999488L696.32 -85.0000076799999L696.32 195.5999948800001z" />
    </font>
</defs>
</svg>
